<?xml version="1.0" encoding="UTF-8" standalone="no"?>
<!-- Created with Inkscape (http://www.inkscape.org/) -->

<svg
   xmlns:dc="http://purl.org/dc/elements/1.1/"
   xmlns:cc="http://creativecommons.org/ns#"
   xmlns:rdf="http://www.w3.org/1999/02/22-rdf-syntax-ns#"
   xmlns:svg="http://www.w3.org/2000/svg"
   xmlns="http://www.w3.org/2000/svg"
   xmlns:sodipodi="http://sodipodi.sourceforge.net/DTD/sodipodi-0.dtd"
   xmlns:inkscape="http://www.inkscape.org/namespaces/inkscape"
   width="210mm"
   height="297mm"
   viewBox="0 0 744.09448819 1052.3622047"
   id="svg2"
   version="1.1"
   inkscape:version="0.91 r13725"
   sodipodi:docname="雨猫ちゃん最終提出、OCTCAT！.svg">
  <defs
     id="defs4" />
  <sodipodi:namedview
     id="base"
     pagecolor="#ffffff"
     bordercolor="#666666"
     borderopacity="1.0"
     inkscape:pageopacity="0.0"
     inkscape:pageshadow="2"
     inkscape:zoom="0.73102716"
     inkscape:cx="576.87334"
     inkscape:cy="591.10477"
     inkscape:document-units="px"
     inkscape:current-layer="layer1"
     showgrid="false"
     inkscape:window-width="1280"
     inkscape:window-height="793"
     inkscape:window-x="-8"
     inkscape:window-y="-8"
     inkscape:window-maximized="1" />
  <metadata
     id="metadata7">
    <rdf:RDF>
      <cc:Work
         rdf:about="">
        <dc:format>image/svg+xml</dc:format>
        <dc:type
           rdf:resource="http://purl.org/dc/dcmitype/StillImage" />
        <dc:title></dc:title>
      </cc:Work>
    </rdf:RDF>
  </metadata>
  <g
     inkscape:label="レイヤー 1"
     inkscape:groupmode="layer"
     id="layer1">
    <flowRoot
       xml:space="preserve"
       id="flowRoot4236"
       style="font-style:normal;font-weight:normal;font-size:40px;line-height:125%;font-family:sans-serif;letter-spacing:0px;word-spacing:0px;fill:#000000;fill-opacity:1;stroke:none;stroke-width:1px;stroke-linecap:butt;stroke-linejoin:miter;stroke-opacity:1"><flowRegion
         id="flowRegion4238"><rect
           id="rect4240"
           width="109.52381"
           height="72.619049"
           x="-100"
           y="291.64792" /></flowRegion><flowPara
         id="flowPara4242" /></flowRoot>    <flowRoot
       xml:space="preserve"
       id="flowRoot4244"
       style="fill:black;stroke:none;stroke-opacity:1;stroke-width:1px;stroke-linejoin:miter;stroke-linecap:butt;fill-opacity:1;font-family:sans-serif;font-style:normal;font-weight:normal;font-size:40px;line-height:125%;letter-spacing:0px;word-spacing:0px"><flowRegion
         id="flowRegion4246"><rect
           id="rect4248"
           width="223.80952"
           height="85.714287"
           x="-154.7619"
           y="572.60028" /></flowRegion><flowPara
         id="flowPara4250"></flowPara></flowRoot>    <flowRoot
       xml:space="preserve"
       id="flowRoot4252"
       style="font-style:normal;font-weight:normal;font-size:40px;line-height:125%;font-family:sans-serif;letter-spacing:-0.18px;word-spacing:0px;fill:#000000;fill-opacity:1;stroke:none;stroke-width:1px;stroke-linecap:butt;stroke-linejoin:miter;stroke-opacity:1;"><flowRegion
         id="flowRegion4254"><rect
           id="rect4256"
           width="302.38095"
           height="141.66666"
           x="-79.761902"
           y="514.26697"
           style="letter-spacing:-0.18px;" /></flowRegion><flowPara
         id="flowPara4258" /></flowRoot>    <flowRoot
       xml:space="preserve"
       id="flowRoot4260"
       style="fill:black;stroke:none;stroke-opacity:1;stroke-width:1px;stroke-linejoin:miter;stroke-linecap:butt;fill-opacity:1;font-family:sans-serif;font-style:normal;font-weight:normal;font-size:40px;line-height:125%;letter-spacing:0px;word-spacing:0px"><flowRegion
         id="flowRegion4262"><rect
           id="rect4264"
           width="63.095238"
           height="63.095238"
           x="73.809525"
           y="604.74316" /></flowRegion><flowPara
         id="flowPara4266"></flowPara></flowRoot>    <flowRoot
       xml:space="preserve"
       id="flowRoot4268"
       style="fill:black;stroke:none;stroke-opacity:1;stroke-width:1px;stroke-linejoin:miter;stroke-linecap:butt;fill-opacity:1;font-family:sans-serif;font-style:normal;font-weight:normal;font-size:40px;line-height:125%;letter-spacing:0px;word-spacing:0px"><flowRegion
         id="flowRegion4270"><rect
           id="rect4272"
           width="238.09525"
           height="98.809525"
           x="-78.571426"
           y="598.79077" /></flowRegion><flowPara
         id="flowPara4274"></flowPara></flowRoot>    <g
       id="g5151"
       transform="translate(5.9525258,-45.633355)">
      <path
         sodipodi:nodetypes="cssscc"
         inkscape:connector-curvature="0"
         id="path3386"
         d="m 347.98519,173.98001 c 0,0 -0.61953,-19.20518 5.5757,-22.3028 6.19522,-3.0976 6.81474,-7.2198 17.34662,-5.98075 10.53188,1.23903 17.34662,8.45884 17.34662,11.55645 0,3.09761 2.88912,18.78821 2.88912,18.78821 z"
         style="fill:#808000;fill-opacity:0.49785408;fill-rule:evenodd;stroke:none;stroke-width:1px;stroke-linecap:butt;stroke-linejoin:miter;stroke-opacity:0" />
      <g
         transform="matrix(1.0000159,0,0,0.97691883,-0.6787902,10.712666)"
         id="g4858">
        <path
           style="fill:#000000;fill-opacity:0.75536481;fill-rule:evenodd;stroke:#000000;stroke-width:1px;stroke-linecap:butt;stroke-linejoin:miter;stroke-opacity:0.93133042"
           d="m 362.30373,449.17709 -11.32155,104.91303 c 0,0 9.05724,15.0954 21.13356,25.66218 12.07632,10.56678 35.47419,18.11448 35.47419,18.11448 0,0 -9.81201,9.81201 -12.07632,19.62402 -2.26431,9.81201 -1.50954,25.66218 -1.50954,25.66218 l -2.26431,22.6431 c 0,0 0,0.75477 -6.03816,9.81201 -6.03816,9.05725 -12.83109,13.58587 -24.15264,11.32156 -11.32155,-2.26431 -21.88833,-10.56679 -21.88833,-10.56679 l -6.79293,48.30529 c 0,0 6.79293,3.01908 22.6431,4.52862 15.85017,1.50955 27.17172,-0.75477 36.22896,-7.54769 9.05724,-6.79293 22.6431,-26.41696 22.6431,-26.41696 0,0 3.01908,-3.01908 6.03816,-1.50954 3.01908,1.50954 0.75477,19.62402 0.75477,19.62402 l -2.26431,78.49608 41.51236,-2.26431 3.31195,-50.78223 2.77139,-31.87093 c 0.41265,-4.74552 14.45279,-5.28339 14.45279,-5.28339 l 8.67086,3.09487 3.37031,8.78292 0.63258,27.75348 0.75477,46.04097 45.2862,1.50954 2.26431,-126.0466 c 0,0 5.28339,-6.79293 8.30247,4.52862 3.01908,11.32155 12.07632,61.13638 12.07632,61.13638 0,0 6.03816,22.6431 10.56678,35.47419 4.52862,12.83109 7.5477,32.45511 18.11448,43.77666 10.56678,11.32155 18.11449,15.0954 24.90742,10.56678 6.79293,-4.52862 9.81201,-12.07632 6.79293,-19.62402 -3.01908,-7.5477 -17.35971,-27.17172 -18.11448,-37.7385 -0.75477,-10.56678 -4.52863,-46.79574 -3.01909,-59.62683 1.50954,-12.83109 -4.52862,-43.77667 -4.52862,-43.77667 l -13.58586,-28.68126 -19.62402,-22.6431 c 0,0 15.0954,-4.52862 28.68126,-12.07632 13.58587,-7.5477 17.85511,-6.20719 33.76214,-25.10993 16.39406,-19.48148 14.54315,-55.65046 10.7693,-77.5388 -3.77385,-21.88833 -3.77385,-21.78711 -3.77385,-21.78711 -5.44086,-3.8086 -16.37324,-7.75207 -30.41916,-13.51685 -5.13997,-2.10956 -10.64237,-3.99304 -17.00269,-6.27063 -6.44642,-2.30842 -13.78581,-4.99837 -24.28131,-5.22115 -49.82646,-1.0576 -95.85579,8.30248 -100.38441,12.07632 -4.52862,3.77385 -15.0954,13.58587 -15.0954,13.58587 -26.57945,-8.66098 -51.79421,-18.95959 -83.77948,-21.13356 z"
           id="path4228"
           inkscape:connector-curvature="0"
           sodipodi:nodetypes="ccscsccssccsscsccccscccccccscsssssscccssscsssscc" />
        <path
           style="fill:#e9c6af;fill-opacity:0.85836912;fill-rule:evenodd;stroke:#000000;stroke-width:1px;stroke-linecap:butt;stroke-linejoin:miter;stroke-opacity:0"
           d="m 400.01438,456.27935 c 0,0 -10.78168,7.27763 -12.12938,13.47709 -1.34771,6.19946 -4.58222,7.54717 -4.58222,19.40701 0,11.85984 1.07817,21.83288 4.31267,29.64959 3.2345,7.81671 6.46901,11.85984 18.0593,18.59839 11.5903,6.73854 20.48518,11.05121 33.42318,13.74663 0,0 28.57143,5.39083 48.51752,4.31267 19.94609,-1.07817 32.34502,1.88679 47.16981,-5.39084 14.8248,-7.27763 37.46631,-17.78976 42.85715,-29.11051 5.39083,-11.32076 9.97304,-25.87601 8.35579,-37.73585 -1.61725,-11.85984 -3.50404,-25.33693 -6.73854,-30.45822 -3.2345,-5.1213 -3.50405,-4.85175 -3.50405,-4.85175 l -18.32884,-3.77359 c 0,0 -30.72776,-1.88679 -46.36118,1.07817 -15.63343,2.96496 -38.81402,5.12129 -44.20485,9.16442 -5.39084,4.04312 -21.02426,17.25067 -21.02426,17.25067 z"
           id="path4218"
           inkscape:connector-curvature="0" />
        <ellipse
           style="fill:#00ffff;fill-opacity:0.27467813;stroke:#040201;stroke-width:1.11171913;stroke-opacity:0"
           id="path4230"
           cx="346.97726"
           cy="861.3363"
           rx="272.25586"
           ry="29.043684" />
        <path
           style="fill:#ff2a2a;fill-rule:evenodd;stroke:#000000;stroke-width:1px;stroke-linecap:butt;stroke-linejoin:miter;stroke-opacity:0.02145924"
           d="m 351.60114,157.81863 c -31.59564,1.23904 -79.56696,17.96614 -79.56696,17.96614 0,0 -31.59563,12.39045 -56.99604,30.35659 -25.40041,17.96614 -70.00601,56.37653 -74.96219,63.19128 -4.95618,6.81473 -29.73707,40.26894 -37.17134,54.51795 -7.434262,14.24901 -21.063741,40.88846 -27.258963,55.757 -6.195223,14.86854 -18.585667,89.21121 -18.585667,90.45024 0,1.23906 9.292833,-11.1514 33.454188,-18.58566 24.161372,-7.43426 43.366562,-9.29283 49.561782,-8.67332 6.19522,0.61953 19.82471,-0.61952 34.69324,4.95619 14.86854,5.57569 42.12751,9.91235 47.08369,13.62948 4.95618,3.71713 34.07373,11.15141 34.07373,11.15141 0,0 27.25897,-22.92233 44.6056,-24.78089 17.34662,-1.85857 34.07372,-2.4781 50.1813,-0.61953 16.10758,1.85857 56.99604,12.39044 62.57174,14.24901 5.5757,1.85857 30.35659,11.15141 30.35659,11.15141 0,0 14.49164,-11.82381 21.9037,-16.328 7.44022,-4.5213 31.99474,-7.21384 31.99474,-7.21384 l 27.8785,-3.71714 c 0,0 27.25897,-1.85857 39.0299,1.23905 11.77092,3.09761 49.56178,14.24901 56.99604,18.58566 7.43427,4.33666 23.54185,10.53188 23.54185,10.53188 0,0 -6.19522,-52.65939 -10.53188,-63.81079 -4.33666,-11.1514 -7.43427,-42.12751 -21.06376,-65.66936 -13.62949,-23.54184 -40.26894,-70.00601 -45.22512,-74.96219 -4.95618,-4.95617 -35.93229,-45.84464 -41.50799,-51.42034 -5.5757,-5.5757 -39.64942,-35.93229 -49.56178,-39.64942 -9.91235,-3.71714 -58.85461,-19.82472 -64.43031,-19.82472 -5.5757,0 -61.06459,-2.47808 -61.06459,-2.47808 z"
           id="path3384"
           inkscape:connector-curvature="0"
           sodipodi:nodetypes="ccssssssssscssscsccsscssssssc" />
        <path
           style="fill:#808000;fill-opacity:0.49785408;fill-rule:evenodd;stroke:#000000;stroke-width:1px;stroke-linecap:butt;stroke-linejoin:miter;stroke-opacity:0.01716739"
           d="m 328.21668,446.18657 -16.80077,267.65369 3.47602,9.84873 c 0.57845,1.63893 3.47602,5.79337 3.47602,5.79337 l 5.21404,1.73801 6.3727,-0.57934 4.6347,-9.84873 27.22884,-272.86773 z"
           id="path3388"
           inkscape:connector-curvature="0"
           sodipodi:nodetypes="ccscccccc" />
        <path
           style="fill:#de8787;fill-rule:evenodd;stroke:#000000;stroke-width:1px;stroke-linecap:butt;stroke-linejoin:miter;stroke-opacity:0.00429185"
           d="m 432.69478,467.17239 c 0,0 -1.63861,6.55445 -0.61448,10.65098 1.02414,4.09653 2.2531,6.14479 4.50619,7.16893 2.25309,1.02413 6.75927,1.22896 8.60271,-0.20483 1.84344,-1.43379 3.48206,-3.27723 4.71101,-7.37376 1.22896,-4.09653 1.02414,-10.24132 1.02414,-10.24132 l -5.12067,4.30135 z"
           id="path3392"
           inkscape:connector-curvature="0" />
        <path
           style="fill:#ffd5d5;fill-rule:evenodd;stroke:#000000;stroke-width:1px;stroke-linecap:butt;stroke-linejoin:miter;stroke-opacity:0.01716739"
           d="m 425.1162,464.1 7.37376,2.66274 c 0,0 0.16129,2.21046 -0.60791,4.92201 -0.1575,0.55519 0.0408,2.16116 -0.0406,2.74369 -0.15179,1.08585 0.82804,3.75291 1.1237,4.78774 1.22896,4.30135 2.66372,6.06018 5.81593,6.47789 2.72915,0.36163 5.28795,-0.0873 5.28795,-0.0873 l 2.77927,-2.15479 3.48559,-6.75443 c 0.40402,-4.10217 0.59047,-8.70586 0.59047,-8.70586 l 8.80754,-7.37376 c 0,0 0.40966,5.93998 0.81931,10.03651 0.10707,1.07067 -0.36484,4.03766 -0.87179,5.94851 -0.48651,1.83381 -0.98765,2.60073 -1.86363,4.1831 -1.8766,3.38988 -4.62361,7.03946 -5.25282,8.5076 -1.22896,2.86758 -6.55445,5.53031 -12.08477,6.96411 -5.53031,1.43378 -7.78341,-1.84344 -12.08476,-6.34964 -4.30136,-4.50617 -3.48206,-7.16892 -3.48206,-7.16892 l -0.40965,-9.42202 z"
           id="path3396"
           inkscape:connector-curvature="0"
           sodipodi:nodetypes="ccsssscccccssssssccc" />
        <path
           style="fill:none;fill-rule:evenodd;stroke:#000000;stroke-width:1px;stroke-linecap:butt;stroke-linejoin:miter;stroke-opacity:1"
           d="M 429.41756,466.35309 Z"
           id="path3398"
           inkscape:connector-curvature="0" />
        <path
           style="fill:#de8787;fill-rule:evenodd;stroke:#000000;stroke-width:1px;stroke-linecap:butt;stroke-linejoin:miter;stroke-opacity:0.01287555"
           d="m 529.16809,444.64147 c 0,0 -5.12066,17.61509 -4.91583,23.35023 0.20482,5.73515 0.63146,10.30429 3.49903,11.9429 2.86757,1.63861 10.33441,-1.96143 11.97302,-6.05796 1.63861,-4.09653 1.52855,-9.57182 1.9382,-13.66835 0.40966,-4.09653 1.43379,-15.77164 1.43379,-15.77164 z"
           id="path3400"
           inkscape:connector-curvature="0"
           sodipodi:nodetypes="csssscc" />
        <path
           style="fill:#ffd5d5;fill-rule:evenodd;stroke:#000000;stroke-width:1px;stroke-linecap:butt;stroke-linejoin:miter;stroke-opacity:0.01716739"
           d="m 518.72194,445.87042 10.65098,-1.6386 -5.32549,22.53092 c 0,0 0.81931,8.19306 1.63861,9.42201 0.81931,1.22896 5.53032,3.68688 6.75928,3.48206 1.22896,-0.20483 5.93997,-3.48206 6.55445,-5.93997 0.61448,-2.45792 4.09653,-24.16954 4.09653,-24.16954 l 0,-5.53032 13.72338,-0.40965 c 0,0 -2.45792,20.68748 -4.30136,25.60332 -1.84344,4.91584 -6.34962,12.49442 -8.80754,15.36199 -2.45792,2.86757 -10.24133,7.57859 -10.24133,7.57859 0,0 -7.57858,-0.40966 -10.0365,-1.43379 -2.45792,-1.02413 -4.30136,-4.09653 -5.12066,-6.34962 -0.81931,-2.2531 -2.04827,-12.69925 -1.63862,-16.79578 0.40966,-4.09653 2.04827,-21.71162 2.04827,-21.71162 z"
           id="path3404"
           inkscape:connector-curvature="0"
           sodipodi:nodetypes="cccssscccsscsssc" />
        <path
           style="fill:#c06f6f;fill-opacity:0.6781116;fill-rule:evenodd;stroke:#500000;stroke-width:1px;stroke-linecap:butt;stroke-linejoin:miter;stroke-opacity:0.02145924"
           d="m 469.66598,524.01176 c 0,0 0.15362,-1.33138 1.33137,-2.96999 1.17775,-1.63861 4.96705,-4.71101 6.0936,-5.17187 1.12654,-0.46086 1.80194,-1.37555 5.27428,-2.45792 0,0 2.91407,-0.48269 4.45308,-0.71311 2.0538,-0.3075 4.41959,-0.19898 4.62658,-0.0334 0.17169,0.13735 1.84608,0.21144 3.45169,0.575 1.64211,0.37183 3.60276,0.98818 3.60276,0.98818 0,0 3.37361,0.899 5.61854,2.70943 2.24493,1.81043 2.17252,4.99678 2.17252,4.99678 0,0 -0.28967,1.01384 -1.30351,1.6656 -1.01384,0.65175 -2.03659,-1.73938 -3.57279,-3.07075 -1.5362,-1.33137 -3.37964,-1.74103 -7.27135,-2.45792 -1.44038,-0.26534 -3.61871,-0.98101 -5.53338,-0.8742 -3.25847,0.18177 -6.14173,1.38626 -6.14173,1.38626 0,0 -4.50619,1.22896 -5.73515,3.27723 -1.22896,2.04827 -2.56033,3.37963 -2.56033,3.37963 0,0 -1.43379,2.35551 -2.25309,2.25309 -0.81931,-0.10241 -2.15068,-1.22895 -2.15068,-1.22895 l -0.40965,-1.02413 z"
           id="path3412"
           inkscape:connector-curvature="0"
           sodipodi:nodetypes="csssscscscsssscsccccc" />
        <ellipse
           style="fill:#be5f5f;fill-opacity:0.5622318;fill-rule:evenodd;stroke:#040201;stroke-width:1px;stroke-linecap:butt;stroke-linejoin:miter;stroke-opacity:0"
           id="path3414"
           cx="484.20868"
           cy="493.23657"
           rx="5.5303173"
           ry="4.147738" />
        <path
           style="fill:none;fill-rule:evenodd;stroke:#000000;stroke-width:1px;stroke-linecap:butt;stroke-linejoin:miter;stroke-opacity:1"
           d="M 518.61276,800.75374 Z"
           id="path4224"
           inkscape:connector-curvature="0" />
        <path
           style="fill:#ff0000;fill-opacity:0.96995706;fill-rule:evenodd;stroke:#000000;stroke-width:1px;stroke-linecap:butt;stroke-linejoin:miter;stroke-opacity:0.02575109"
           d="m 490.58041,785.12032 53.63882,1.61725 0,36.1186 -0.53909,29.6496 c 0,0 2.69542,1.61725 -3.77358,2.96496 -6.469,1.34771 -59.56874,-1.07817 -59.56874,-0.80863 l -6.46899,-5.39084 -2.15634,-5.66037 c 0,0 -2.70669,-20.34036 0.26954,-26.95418 2.42588,-5.39083 1.88679,-9.43396 9.97305,-9.16441 8.08625,0.26954 8.35579,0.26954 8.35579,0.26954 z"
           id="path4226"
           inkscape:connector-curvature="0"
           sodipodi:nodetypes="ccccscccsscc" />
        <g
           id="g4462"
           transform="translate(-12.394529,-1.321608)">
          <path
             sodipodi:nodetypes="cccscssscc"
             inkscape:connector-curvature="0"
             id="path4222"
             d="m 416.72157,792.91093 59.80306,-1.23055 -3.19928,63.22516 c 0,0 -0.26954,3.77359 -8.62534,4.04313 -8.35579,0.26954 -67.38544,0.80862 -67.38544,0.80862 0,0 -9.16443,-7.00808 -9.16443,-11.85983 0,-4.85176 -3.2345,-15.63343 0.26955,-22.37197 3.50404,-6.73855 8.89488,-11.32076 14.82479,-11.5903 5.92992,-0.26954 12.93801,-1.07816 12.93801,-1.07816 z"
             style="fill:#ff0000;fill-rule:evenodd;stroke:#000000;stroke-width:1px;stroke-linecap:butt;stroke-linejoin:miter;stroke-opacity:0" />
        </g>
        <g
           id="g4325"
           transform="translate(-14.069177,-39.838466)">
          <ellipse
             ry="4.8644314"
             rx="5.0881991"
             cy="685.87476"
             cx="418.5332"
             id="path4313"
             style="fill:#ffffff;fill-opacity:0.49356223;stroke:#000000;stroke-width:0.87339896;stroke-opacity:0.02145924" />
          <ellipse
             ry="5.4969602"
             rx="4.4549055"
             cy="667.18134"
             cx="422.11349"
             id="path4315"
             style="fill:#ffffff;fill-opacity:0.49356223;stroke:#000000;stroke-width:0.87416345;stroke-opacity:0.02145924" />
          <ellipse
             ry="6.6455698"
             rx="6.329114"
             cy="707.74194"
             cx="417.08859"
             id="path4317"
             style="fill:#ffffff;fill-opacity:0.49356223;stroke:#000000;stroke-opacity:0.02145924" />
          <ellipse
             ry="2.8481014"
             rx="4.7468352"
             cy="727.73297"
             cx="402.54099"
             id="path4319"
             style="fill:#ffffff;fill-opacity:0.49356223;stroke:#000000;stroke-opacity:0.02145924" />
          <ellipse
             ry="5.3797469"
             rx="6.329114"
             cy="736.8877"
             cx="386.3381"
             id="path4321"
             style="fill:#ffffff;fill-opacity:0.49356223;stroke:#000000;stroke-opacity:0.02145924" />
          <circle
             r="5.6962028"
             cy="736.53943"
             cx="367.08859"
             id="path4323"
             style="fill:#ffffff;fill-opacity:0.49356223;stroke:#000000;stroke-opacity:0.02145924" />
        </g>
        <path
           style="fill:#00ffff;fill-opacity:0.2745098;fill-rule:evenodd;stroke:#000000;stroke-width:1px;stroke-linecap:butt;stroke-linejoin:miter;stroke-opacity:0.03433479"
           d="m 134.18693,559.29696 c -4.60859,15.36199 -5.12066,10.7534 -4.60859,15.87406 0.51206,5.12067 7.68099,12.28959 7.68099,12.28959 l 7.16893,-2.56033 3.0724,-8.70513 0,-12.28959 -6.65686,-18.94646 z"
           id="path4493"
           inkscape:connector-curvature="0" />
        <path
           style="fill:#00ffff;fill-opacity:0.2745098;fill-rule:evenodd;stroke:#000000;stroke-width:1px;stroke-linecap:butt;stroke-linejoin:miter;stroke-opacity:0"
           d="m 215.09343,689.8739 c -5.12067,14.33786 -3.58447,8.19306 -5.12067,14.33786 -1.5362,6.14479 -3.0724,13.31372 -3.0724,13.31372 l 4.6086,5.63273 7.681,-1.02413 4.09653,-11.77753 -3.58447,-13.82579 z"
           id="path4495"
           inkscape:connector-curvature="0" />
        <path
           style="fill:none;fill-rule:evenodd;stroke:#000000;stroke-width:1px;stroke-linecap:square;stroke-linejoin:miter;stroke-opacity:1"
           d="m 639.68536,518.63012 60.33058,28.09918 -1.65289,-0.82645 -2.47934,-0.82645"
           id="path4587"
           inkscape:connector-curvature="0" />
        <path
           style="fill:none;fill-rule:evenodd;stroke:#000000;stroke-width:1px;stroke-linecap:butt;stroke-linejoin:miter;stroke-opacity:1"
           d="m 639.68536,533.50616 57.0248,28.09917"
           id="path4589"
           inkscape:connector-curvature="0" />
        <path
           style="fill:none;fill-rule:evenodd;stroke:#000000;stroke-width:1px;stroke-linecap:butt;stroke-linejoin:miter;stroke-opacity:1"
           d="M 368.61098,533.50616 Z"
           id="path4609"
           inkscape:connector-curvature="0" />
        <path
           style="fill:none;fill-rule:evenodd;stroke:#000000;stroke-width:1px;stroke-linecap:butt;stroke-linejoin:miter;stroke-opacity:1"
           d="m 357.86718,565.73756 -10.7438,7.43802 0.82645,-0.82645 0,0"
           id="path4611"
           inkscape:connector-curvature="0" />
        <path
           style="fill:none;fill-rule:evenodd;stroke:#000000;stroke-width:1px;stroke-linecap:butt;stroke-linejoin:miter;stroke-opacity:1"
           d="m 319.02421,583.91938 -12.3967,7.43802"
           id="path4613"
           inkscape:connector-curvature="0" />
        <path
           style="fill:none;fill-rule:evenodd;stroke:#000000;stroke-width:1px;stroke-linecap:butt;stroke-linejoin:miter;stroke-opacity:1"
           d="m 320.6771,564.08467 -14.04959,9.91735"
           id="path4615"
           inkscape:connector-curvature="0" />
        <flowRoot
           xml:space="preserve"
           id="flowRoot4641"
           style="font-style:normal;font-variant:normal;font-weight:bold;font-stretch:normal;font-size:27.5px;line-height:125%;font-family:Aharoni;-inkscape-font-specification:'Aharoni, Bold';text-align:start;letter-spacing:0px;word-spacing:0px;writing-mode:lr-tb;text-anchor:start;fill:#000000;fill-opacity:1;stroke:none;stroke-width:1px;stroke-linecap:butt;stroke-linejoin:miter;stroke-opacity:1"
           transform="translate(-10.727862,-22.988275)"><flowRegion
             id="flowRegion4643"><rect
               id="rect4645"
               width="189.03383"
               height="61.871269"
               x="108.81882"
               y="418.72577"
               style="font-style:normal;font-variant:normal;font-weight:bold;font-stretch:normal;font-size:27.5px;line-height:125%;font-family:Aharoni;-inkscape-font-specification:'Aharoni, Bold';text-align:start;writing-mode:lr-tb;text-anchor:start" /></flowRegion><flowPara
             id="flowPara4727">It must be fine</flowPara></flowRoot>        <path
           style="fill:#ffffff;fill-opacity:0.49785408;stroke:none;stroke-linecap:square;stroke-linejoin:miter;stroke-opacity:0"
           id="path4773"
           d="m 448.81322,477.85515 c 0.56566,0.26307 0.27639,0.11561 0.86503,0.44784 0,0 -4.73969,3.10164 -4.73969,3.10164 l 0,0 c -0.58978,-0.29354 -0.29237,-0.15597 -0.89201,-0.41318 0,0 4.76667,-3.1363 4.76667,-3.1363 z"
           inkscape:connector-curvature="0" />
        <path
           style="fill:#ffffff;fill-opacity:0.49785408;stroke:none;stroke-linecap:square;stroke-linejoin:miter;stroke-opacity:0"
           id="path4775"
           d="m 532.58098,475.54895 c 0.77793,-0.64263 1.48807,-1.33936 2.35418,-1.86538 2.15162,-0.88806 3.93004,-2.45276 6.05375,-3.37244 0,0 -4.44617,3.53575 -4.44617,3.53575 l 0,0 c -1.7624,0.87769 -4.31435,2.24772 3.68809,-2.20068 -0.93081,0.52848 -1.60934,0.98147 -2.35175,1.77659 0,0 -5.2981,2.12616 -5.2981,2.12616 z"
           inkscape:connector-curvature="0" />
        <path
           style="fill:#ffffff;fill-opacity:0.49785408;stroke:none;stroke-linecap:square;stroke-linejoin:miter;stroke-opacity:0"
           id="path4777"
           d="m 533.73483,471.7028 c 2.16617,-1.56576 4.55763,-2.81452 6.9373,-4.02592 0,0 -4.4263,3.55541 -4.4263,3.55541 l 0,0 c -3.73187,2.02618 6.43538,-3.80166 2.7871,-1.65566 0,0 -5.2981,2.12617 -5.2981,2.12617 z"
           inkscape:connector-curvature="0" />
        <path
           style="fill:#ffffff;fill-opacity:0.49785408;stroke:none;stroke-linecap:square;stroke-linejoin:miter;stroke-opacity:0"
           id="path4779"
           d="m 443.713,478.63823 c 0.60289,-0.78464 1.35884,-1.4235 2.10985,-2.0595 0.095,-0.0836 0.19002,-0.16729 0.28503,-0.25094 0,0 5.28014,-2.12437 5.28014,-2.12437 l 0,0 c -0.10093,0.076 -0.20186,0.15191 -0.30278,0.22787 -0.69739,0.66518 -1.54035,1.18254 -2.12249,1.96405 0,0 -5.24975,2.24289 -5.24975,2.24289 z"
           inkscape:connector-curvature="0" />
        <path
           style="fill:#ffffff;fill-opacity:0.49785408;stroke:none;stroke-linecap:square;stroke-linejoin:miter;stroke-opacity:0"
           id="path4781"
           d="m 537.92861,473.93034 c -0.61563,0.15721 -1.23515,0.26365 -1.84332,0.44637 -0.25479,0.0524 -0.85374,0.29466 -0.98786,-0.0793 -0.0351,-0.0979 -0.0366,-0.2047 -0.0549,-0.30705 1.57348,-1.52636 3.16313,-2.08528 5.09892,-2.29228 0.48265,-0.0388 0.24521,-0.0226 0.71231,-0.0494 0,0 -2.98631,2.19943 -2.98631,2.19943 l 0,0 c -0.45422,0.033 -0.22337,0.0131 -0.6925,0.0603 -0.38403,0.0519 -0.76822,0.10241 -1.14012,0.21672 -0.10584,0.0325 -0.40614,0.17289 -0.31149,0.11543 2.66312,-1.61661 4.04409,-2.1491 2.80518,-1.66307 -0.0126,-0.0137 -0.26138,-0.27249 -0.2595,-0.30413 0.002,-0.0281 0.0564,-0.002 0.0843,-0.006 0.2316,-0.0327 0.45617,-0.0978 0.681,-0.16036 0.61408,-0.1641 1.24993,-0.2449 1.84738,-0.47082 0,0 -2.95306,2.29422 -2.95306,2.29422 z"
           inkscape:connector-curvature="0" />
        <path
           style="fill:#ffffff;fill-opacity:0.49785408;stroke:none;stroke-linecap:square;stroke-linejoin:miter;stroke-opacity:0"
           id="path4783"
           d="m 536.22349,474.33952 c 0.59012,-0.19373 1.11786,-0.51623 1.66117,-0.808 0.0953,-0.0422 0.19067,-0.0844 0.28601,-0.12659 0.0938,-0.032 0.1901,-0.0574 0.28133,-0.0961 0.0799,-0.0339 0.30574,-0.16428 0.2305,-0.12104 -6.26606,3.60123 -1.46051,0.7307 0.67301,-0.39424 -3.02582,1.73456 -3.89368,2.31068 -2.71928,1.53993 0,0 3.46933,-1.34987 3.46933,-1.34987 l 0,0 c -1.35137,0.84216 -0.15312,0.0984 -3.64721,2.14453 -1.63369,0.92176 4.35002,-2.45323 2.72473,-1.57833 -1.44628,0.77854 -2.71953,1.66443 -4.18892,2.31025 -0.55619,0.30633 -1.13296,0.60251 -1.76049,0.72809 0,0 2.98982,-2.2486 2.98982,-2.2486 z"
           inkscape:connector-curvature="0" />
        <path
           style="fill:#ffffff;fill-opacity:0.49785408;stroke:none;stroke-linecap:square;stroke-linejoin:miter;stroke-opacity:0"
           id="path4785"
           d="m 537.69921,468.44248 c 0.68079,-0.2953 1.37956,-0.52281 2.09385,-0.72128 0.74448,-0.29643 1.53673,-0.47371 2.27319,-0.78626 0.39757,-0.25529 1.32113,-0.16402 0.85031,0.51162 -1.13878,0.66383 -2.26446,1.35067 -3.41633,1.99151 -0.0966,0.0537 -0.21456,0.0539 -0.31996,0.0872 -0.45504,0.14377 -0.89865,0.3184 -1.34785,0.47886 -0.38177,0.13584 -0.78002,0.20052 -1.18037,0.24895 0,0 2.97849,-2.2326 2.97849,-2.2326 l 0,0 c 0.3826,-0.0693 0.76071,-0.15787 1.12444,-0.29858 1.45183,-0.53042 4.55613,-1.81789 -1.30756,1.12545 0.21611,-0.0769 0.1764,-0.11583 0.36217,0.15931 0.006,0.009 -0.0389,-0.002 -0.19046,0.0446 -0.132,0.0403 -0.35545,0.12713 -0.47485,0.17202 -0.75803,0.25063 -1.51404,0.50716 -2.27444,0.7506 -0.71492,0.21606 -1.42001,0.46809 -2.08899,0.80307 0,0 2.91836,-2.33441 2.91836,-2.33441 z"
           inkscape:connector-curvature="0" />
        <path
           style="fill:#ffffff;fill-opacity:0.49785408;stroke:none;stroke-linecap:square;stroke-linejoin:miter;stroke-opacity:0"
           id="path4787"
           d="m 446.50868,476.75542 c 1.16239,-0.51815 2.93924,-1.57067 -2.34277,1.37934 -0.17279,0.0965 0.31841,-0.23681 0.49043,-0.33469 1.15091,-0.65487 2.30869,-1.29758 3.46304,-1.94637 1.4002,-0.54036 4.00597,-2.12523 -1.60244,1.07895 1.4736,-0.96034 2.85409,-2.10249 4.60368,-2.26284 0.25074,0.008 0.48957,-0.0698 0.73223,-0.12079 0,0 -2.97197,2.24833 -2.97197,2.24833 l 0,0 c -0.24796,0.0451 -0.4963,0.0799 -0.74725,0.10453 -0.23435,0.0425 -0.45902,0.0897 -0.67996,0.18214 -0.0729,0.0305 -0.28242,0.14152 -0.21428,0.10148 0.0579,-0.034 4.18642,-2.42594 2.75212,-1.59496 -1.60869,0.92633 -3.08977,1.88598 -4.78604,2.57183 0.97316,-0.56851 1.94698,-1.13588 2.91947,-1.70554 0.0828,-0.0485 -0.16947,0.0907 -0.25052,0.14214 -0.0873,0.0554 -0.16511,0.12521 -0.25391,0.17817 -1.35953,0.8109 -2.62086,1.65438 -4.03019,2.3127 0,0 2.91836,-2.33442 2.91836,-2.33442 z"
           inkscape:connector-curvature="0" />
        <path
           style="fill:#ffffff;fill-opacity:0.49785408;stroke:none;stroke-linecap:square;stroke-linejoin:miter;stroke-opacity:0"
           id="path4789"
           d="m 448.32633,479.6844 c 0.63072,-0.12825 1.24921,-0.30445 1.88674,-0.40669 0.0864,-0.0289 0.17538,-0.0508 0.2591,-0.0866 0.1566,-0.067 0.30635,-0.14923 0.45628,-0.23006 0.0753,-0.0406 0.29371,-0.17561 0.21941,-0.13319 -2.9714,1.69657 -3.88723,2.35501 -2.74431,1.54586 0.2528,-0.21544 0.1305,-0.10877 0.36723,-0.31964 0,0 3.44432,-1.43006 3.44432,-1.43006 l 0,0 c -0.21916,0.25221 -0.0995,0.13461 -0.3599,0.35195 -1.11755,1.12886 -0.17051,0.2062 -3.60932,2.18797 -0.30642,0.17659 -0.65286,0.28714 -0.99908,0.34875 -0.64906,0.12444 -1.28526,0.33379 -1.94743,0.37092 0,0 3.02696,-2.19922 3.02696,-2.19922 z"
           inkscape:connector-curvature="0" />
        <path
           style="fill:#ffffff;fill-opacity:0.49785408;stroke:none;stroke-linecap:square;stroke-linejoin:miter;stroke-opacity:0"
           id="path4791"
           d="m 538.81595,465.26492 c 1.17659,-0.35613 2.30978,-0.85853 3.4637,-1.28989 1.03952,-0.36923 2.13716,-0.4579 3.23004,-0.50489 0.90326,-0.0919 1.60664,-0.0123 2.27418,0.62501 0,0 -6.38597,3.99459 -6.38597,3.99459 l 0,0 c -0.57351,-0.35994 -1.28602,-0.18216 -1.92864,-0.17193 -1.0538,0.0898 -2.09606,0.2617 -3.0783,0.67399 -1.16308,0.45679 -2.33111,0.9045 -3.51944,1.29133 0,0 5.94443,-4.61821 5.94443,-4.61821 z"
           inkscape:connector-curvature="0" />
        <path
           style="fill:#ffffff;fill-opacity:0.49785408;stroke:none;stroke-linecap:square;stroke-linejoin:miter;stroke-opacity:0"
           id="path4793"
           d="m 538.78103,472.77006 c 1.2707,-0.53823 2.58327,-0.96951 3.8601,-1.48956 2.41179,-0.91597 6.16443,-3.26982 -4.91777,2.93513 -0.25751,0.14418 0.46253,-0.37025 0.7179,-0.51819 2.26537,-1.31234 4.546,-2.59816 6.819,-3.89724 0.86863,-0.10789 1.68207,-0.37461 2.53235,-0.5632 0,0 -5.9751,4.56718 -5.9751,4.56718 l 0,0 c -0.81402,0.22399 -1.67272,0.30444 -2.4323,0.68947 2.0204,-1.17476 4.04188,-2.34768 6.06122,-3.52427 0.25668,-0.14956 -0.48581,0.34311 -0.74113,0.49497 -2.26593,1.34769 -4.53807,2.68526 -6.82665,3.99412 -0.092,0.0526 -1.04674,0.40643 -1.11423,0.43179 -1.30483,0.47656 -2.60893,0.96876 -3.85797,1.57891 0,0 5.87458,-4.69911 5.87458,-4.69911 z"
           inkscape:connector-curvature="0" />
        <path
           style="fill:#ffffff;fill-opacity:0.49785408;stroke:none;stroke-linecap:square;stroke-linejoin:miter;stroke-opacity:0"
           id="path4795"
           d="m 449.02731,474.79839 c 1.56681,-0.51652 3.07617,-1.18692 4.64284,-1.70266 1.17212,-0.52672 2.29784,-1.08551 3.56243,-1.35475 0.94469,-0.60289 1.85216,0.0852 1.31488,1.11473 0,0 -7.00996,2.80415 -7.00996,2.80415 l 0,0 c 0.42767,-0.0384 1.16566,0.225 0.21328,0.50853 -0.15535,0.0462 -0.3125,0.0863 -0.46875,0.12944 -1.20077,0.36685 -2.30002,0.97078 -3.48875,1.37186 -1.56447,0.55927 -3.12638,1.14437 -4.64055,1.82781 0,0 5.87458,-4.69911 5.87458,-4.69911 z"
           inkscape:connector-curvature="0" />
        <path
           style="fill:#ffffff;fill-opacity:0.49785408;stroke:none;stroke-linecap:square;stroke-linejoin:miter;stroke-opacity:0"
           id="path4797"
           d="m 445.00557,481.49158 c 1.36738,-0.26916 2.72821,-0.52148 4.01805,-1.06281 0.97802,-0.35793 1.97249,-0.59001 2.88812,-1.09864 2.54959,-1.11642 0.76614,-0.3535 -5.63502,3.26996 -0.13317,0.0754 0.26214,-0.15832 0.3884,-0.24481 0.25837,-0.177 0.49975,-0.39288 0.77332,-0.54843 2.28603,-1.29985 4.58437,-2.57795 6.87655,-3.86692 0.15763,-0.037 0.31525,-0.0741 0.47288,-0.11111 0,0 -5.93637,4.5995 -5.93637,4.5995 l 0,0 c -0.14127,0.0583 -0.28254,0.11654 -0.42381,0.17481 2.00715,-1.16314 4.0202,-2.31616 6.02145,-3.48942 0.13358,-0.0783 -0.28332,0.12648 -0.4174,0.20396 -0.35652,0.20603 -0.4365,0.30437 -0.74403,0.57627 -2.26047,1.33174 -4.54543,2.62154 -6.82691,3.91696 -0.13575,0.0771 -0.28236,0.13324 -0.42354,0.19986 -0.95399,0.3855 -1.94639,0.64898 -2.90499,1.02375 -1.34181,0.42644 -2.73159,0.64403 -4.07113,1.07528 0,0 5.94443,-4.61821 5.94443,-4.61821 z"
           inkscape:connector-curvature="0" />
      </g>
      <path
         inkscape:connector-curvature="0"
         id="path4908"
         d="m 384.5236,849.49485 c -0.4475,0.89499 -0.89499,1.78999 -1.34249,2.68498 -0.22375,0 -0.51303,-0.15821 -0.67125,0 -0.31643,0.31643 0.20013,0.94224 0,1.3425 -0.14151,0.28302 -0.52973,0.38822 -0.67124,0.67124 -0.10007,0.20013 0.10006,0.47112 0,0.67125 -0.14152,0.28302 -0.52974,0.38822 -0.67125,0.67125 -0.10006,0.20012 0.15821,0.51303 0,0.67124 -0.15822,0.15822 -0.51303,-0.15821 -0.67125,0 -0.31643,0.31643 0.31643,1.02607 0,1.3425 -0.15821,0.15821 -0.47112,-0.10007 -0.67124,0 -2.79357,1.39678 0.71758,-0.0463 -0.67125,1.34249 -0.15822,0.15821 -0.51303,-0.15821 -0.67125,0 0,1.78999 0.22375,-0.22375 -0.67124,0.67125 -0.31643,0.31643 0.20012,0.94224 0,1.34249 -1.39679,2.79357 0.0463,-0.71759 -1.3425,0.67125 -0.15821,0.15821 0.10007,0.47112 0,0.67124 -1.39678,2.79357 0.0463,-0.71758 -1.34249,0.67125 -0.15822,0.15821 0.10006,0.47112 0,0.67125 -1.39679,2.79357 0.0463,-0.71759 -1.3425,0.67124 -0.22434,0.22435 0.22435,1.11815 0,1.3425 -0.31642,0.31643 -1.02606,-0.31643 -1.34249,0 -0.22434,0.22434 0.22435,1.11814 0,1.34249 -0.15821,0.15822 -0.51303,-0.15821 -0.67125,0 -0.15821,0.15822 0.10007,0.47112 0,0.67125 -0.28302,0.56604 -1.05947,0.77645 -1.34249,1.34249 -0.10006,0.20013 0.15822,0.51303 0,0.67125 -0.15821,0.15821 -0.51303,-0.15822 -0.67125,0 -1.38883,1.38883 2.12233,-0.0543 -0.67124,1.34249 -0.20013,0.10006 -0.51303,-0.15821 -0.67125,0 -0.45599,0.456 0.68634,1.33495 -0.67125,2.01374 -1.78999,0 0.22375,-0.22375 -0.67124,0.67125 -0.15822,0.15821 -0.57119,-0.20013 -0.67125,0 -0.20013,0.40025 0.20013,0.94224 0,1.34249 -0.10006,0.20013 -0.51303,-0.15821 -0.67125,0 -0.15821,0.15822 0.10007,0.47112 0,0.67125 -0.14151,0.28302 -0.52973,0.38822 -0.67124,0.67125 -0.20013,0.40025 0.31643,1.02606 0,1.34249 -0.15822,0.15821 -0.51304,-0.15822 -0.67125,0 -0.0987,0.0987 0.079,2.01374 0,2.01374 -0.22375,0 0,-0.895 0,-0.67125 0,0.4475 0,0.895 0,1.3425 0,0.22374 0,0.44749 0,0.67124 0,0.22375 0.22375,0.67125 0,0.67125 -0.22375,0 0,-0.895 0,-0.67125 0,0.4475 0,0.895 0,1.3425 0,0.22375 -0.15821,0.51303 0,0.67124 0.9845,0.9845 0.60412,-1.27537 0.67125,-1.34249 0.14715,-0.14715 1.78289,0.1539 2.01374,0 0.52657,-0.35105 0.7549,-1.10746 1.34249,-1.34249 0.83098,-0.3324 1.78999,0 2.68499,0 1.78999,0 3.57998,0 5.36997,0 0.4475,0 0.895,0 1.3425,0 0.22374,0 0.51303,0.15821 0.67124,0 0.15822,-0.15822 -0.15821,-0.51304 0,-0.67125 0.15822,-0.15822 0.4475,0 0.67125,0 1.34249,0 2.68499,0 4.02748,0 0.22375,0 0.51303,0.15821 0.67125,0 0.15821,-0.15822 -0.15822,-0.51303 0,-0.67125 0.15821,-0.15821 0.44749,0 0.67124,0 0.22375,0 0.4475,0 0.67125,0 1.78999,0 3.57998,0 5.36997,0 13.42494,0 26.84987,0 40.27481,0 0.46688,0 3.11349,0.12138 3.35623,0 0.28303,-0.14151 0.38823,-0.52973 0.67125,-0.67124 0.20013,-0.10007 0.51303,0.15821 0.67125,0 0.15821,-0.15822 -0.15822,-0.51304 0,-0.67125 0.0216,-0.0216 1.85094,0 2.01374,0 3.80373,0 7.60746,0 11.41119,0 1.34249,0 2.68499,0 4.02748,0 0.22375,0 0.57119,0.20013 0.67125,0 0.30019,-0.60038 0,-1.34249 0,-2.01374 0,-1.78999 0,-3.57998 0,-5.36998 0,-0.67124 -0.21227,-1.37694 0,-2.01374 0.10006,-0.30019 0.52973,-0.38822 0.67125,-0.67124 0.10006,-0.20013 0,-0.4475 0,-0.67125 0,-0.4475 0,-0.89499 0,-1.34249 0,-0.46688 -0.12138,-3.11349 0,-3.35624 0.14151,-0.28302 0.44749,-0.44749 0.67124,-0.67124 0.22375,0 0.57119,0.20012 0.67125,0 0.21095,-0.4219 -0.21095,-2.2631 0,-2.68499 1.39678,-2.79357 -0.0463,0.71759 1.34249,-0.67125 0.027,-0.027 0,-2.43848 0,-2.68498 0,-2.01374 0,-4.02748 0,-6.04122 0,-0.4475 0,-0.895 0,-1.3425 0,-0.22375 -0.22375,-0.67125 0,-0.67125 0.22375,0 0.15822,0.51304 0,0.67125 -0.31643,0.31643 -0.91796,-0.14151 -1.34249,0 -0.47464,0.15822 -0.86785,0.51303 -1.34249,0.67125 -0.40025,0.13341 -3.37714,0 -4.02749,0 -3.80373,0 -0.22374,-0.4475 -1.34249,0.67125 -0.16152,0.16152 -2.52346,-0.16153 -2.68499,0 -0.15821,0.15821 0.15822,0.51303 0,0.67124 -0.15821,0.15822 -0.44749,0 -0.67124,0 -0.46688,0 -3.11349,-0.12137 -3.35624,0 -0.28302,0.14151 -0.38822,0.52974 -0.67124,0.67125 -0.20013,0.10006 -0.4475,0 -0.67125,0 -0.22375,0 -0.4475,0 -0.67125,0 -1.34249,0 -2.68498,0 -4.02748,0 -1.34249,0 -2.68498,0 -4.02748,0 -0.22375,0 -0.4475,0 -0.67124,0 -0.22375,0 -0.47112,-0.10006 -0.67125,0 -0.28302,0.14151 -0.38823,0.52973 -0.67125,0.67125 -0.1765,0.0882 -2.33398,0 -2.68498,0 -1.79,0 -3.57999,0 -5.36998,0 -6.04122,0 -12.08244,0 -18.12366,0 -4.02748,0 -8.05496,0 -12.08244,0 -1.11875,0 -2.23749,0 -3.35624,0 -0.44749,0 -0.94224,0.20012 -1.34249,0 -1.00064,-0.50032 -1.56624,-2.01374 -2.68499,-2.01374 -2.86398,0 -2.68498,3.56208 -2.68498,1.34249"
         style="fill:#ff0000;fill-opacity:0.34334765;fill-rule:evenodd;stroke:#000000;stroke-width:1px;stroke-linecap:butt;stroke-linejoin:miter;stroke-opacity:0.08583691" />
      <path
         inkscape:connector-curvature="0"
         id="path4910"
         d="m 479.84064,847.4811 c -0.4475,0.895 -0.84604,1.8162 -1.34249,2.68499 -0.40026,0.70045 -0.85845,1.36835 -1.34249,2.01374 -0.18986,0.25315 -0.52974,0.38823 -0.67125,0.67125 -0.10007,0.20013 0.10006,0.47112 0,0.67125 -0.14151,0.28302 -0.52974,0.38822 -0.67125,0.67124 -0.21803,0.43606 0.21289,2.93045 0,3.35624 -0.14151,0.28302 -0.52973,0.38822 -0.67125,0.67124 -0.10204,0.20409 0,2.22148 0,2.68499 0,2.01374 0,4.02748 0,6.04122 0,0.56831 0.12029,2.32412 0,2.68499 -0.10006,0.30019 -0.52973,0.38822 -0.67124,0.67124 -0.36905,0.73811 0.64644,1.3549 -0.67125,2.01374 -0.20013,0.10007 -0.57118,-0.20012 -0.67125,0 -0.14264,0.28529 0,2.79373 0,3.35624 0,0.4475 0,0.89499 0,1.34249 0,0.22375 0.22375,0.67125 0,0.67125 -0.26544,0 -0.12795,-0.94289 0.67125,-1.34249 0.19968,-0.0998 3.74511,0 4.02748,0 1.78999,0 -0.22375,0.22374 0.67125,-0.67125 0.15821,-0.15822 0.4475,0 0.67125,0 0.22374,0 0.44749,0 0.67124,0 0.39965,0 3.77567,0.12591 4.02748,0 0.20013,-0.10006 -0.15821,-0.51303 0,-0.67125 0.15822,-0.15821 0.4475,0 0.67125,0 0.22375,0 0.4475,0 0.67125,0 1.34249,0 2.68498,0 4.02748,0 0.22375,0 0.51303,0.15822 0.67124,0 0.15822,-0.15821 -0.15821,-0.51303 0,-0.67124 0.20785,-0.20785 3.14839,0.20784 3.35624,0 0.15821,-0.15822 -0.15822,-0.51304 0,-0.67125 0.15821,-0.15822 0.4475,0 0.67124,0 0.22375,0 0.4475,0 0.67125,0 2.46124,0 4.92248,0 7.38372,0 0.47578,0 3.85392,0.0868 4.02748,0 0.28302,-0.14151 0.38822,-0.52974 0.67124,-0.67125 0.20013,-0.10006 0.4475,0 0.67125,0 0.22375,0 0.4475,0 0.67125,0 3.35623,0 6.71246,0 10.0687,0 0.16279,0 1.99215,0.0216 2.01374,0 0.15821,-0.15821 -0.20013,-0.57118 0,-0.67125 0.40025,-0.20012 0.89499,0 1.34249,0 1.11875,0 2.23749,0 3.35623,0 0.22375,0 0.47112,0.10007 0.67125,0 0.28302,-0.14151 0.38823,-0.52973 0.67125,-0.67124 0.20013,-0.10007 0.47112,0.10006 0.67125,0 0.28302,-0.14151 0.38822,-0.52974 0.67124,-0.67125 0.20429,-0.10214 1.71144,0 2.01374,0 1.78999,0 3.57998,0 5.36998,0 0.22375,0 0.44749,0 0.67124,0 0.22375,0 0.51304,0.15822 0.67125,0 0.0216,-0.0216 0,-1.85094 0,-2.01374 0,-1.78999 0,-3.57998 0,-5.36997 0,-0.3023 -0.10214,-1.80946 0,-2.01374 0.14151,-0.28303 0.52974,-0.38823 0.67125,-0.67125 0.2685,-0.537 -0.2685,-1.47674 0,-2.01374 0.14151,-0.28302 0.52973,-0.38822 0.67124,-0.67125 0.10007,-0.20012 -0.10006,-0.47112 0,-0.67124 0.28303,-0.56605 1.05947,-0.77645 1.3425,-1.3425 0.18207,-0.36414 -0.18367,-2.50132 0,-2.68498 0.15821,-0.15822 0.51303,0.15821 0.67124,0 0.31643,-0.31643 -0.20012,-0.94224 0,-1.3425 0.14151,-0.28302 0.52974,-0.38822 0.67125,-0.67124 0.0883,-0.1765 0,-2.33398 0,-2.68499 0,-0.22375 0.15821,-0.51303 0,-0.67125 -0.15821,-0.15821 -0.4475,0 -0.67125,0 -0.22375,0 -0.51303,-0.15821 -0.67124,0 -0.15822,0.15822 0.20012,0.57118 0,0.67125 -0.40026,0.20013 -0.895,0 -1.3425,0 -1.34249,0 -2.68498,0 -4.02748,0 -1.56624,0 -3.13248,0 -4.69872,0 -0.22375,0 -0.51304,-0.15822 -0.67125,0 -0.15822,0.15821 0.15821,0.51303 0,0.67125 -0.0216,0.0216 -1.85095,0 -2.01374,0 -3.57998,0 -7.15997,0 -10.73995,0 -1.56624,0 -3.13248,0 -4.69873,0 -0.3023,0 -1.80945,0.10214 -2.01374,0 -0.28302,-0.14152 -0.38822,-0.52974 -0.67124,-0.67125 -0.20013,-0.10007 -0.4475,0 -0.67125,0 -0.22375,-0.22375 -0.38823,-0.52974 -0.67125,-0.67125 -0.20012,-0.10006 -0.4475,0 -0.67124,0 -0.22375,0 -0.4475,0 -0.67125,0 -1.11875,0 -2.23749,0 -3.35623,0 -3.57999,0 -7.15997,0 -10.73995,0 -0.1628,0 -1.99216,0.0216 -2.01374,0 -0.15822,-0.15821 0.15821,-0.51303 0,-0.67125 -0.15822,-0.15821 -0.4475,0 -0.67125,0 -0.22375,0 -0.4475,0 -0.67125,0 -2.68498,0 -5.36997,0 -8.05496,0 z"
         style="fill:#ff0000;fill-opacity:0.32618025;fill-rule:evenodd;stroke:#000000;stroke-width:1px;stroke-linecap:butt;stroke-linejoin:miter;stroke-opacity:0.01716739" />
      <path
         inkscape:connector-curvature="0"
         d="m 537.22358,466.62912 c 0.761,-0.31066 1.55997,-0.48072 2.24373,-0.95695 0.4052,-0.33027 0.91807,-0.34771 1.38914,-0.49567 0.21395,-0.0672 0.41062,-0.18116 0.6212,-0.25822 1.70765,-1.2195 4.62507,-2.61974 -4.55307,2.58229 -0.0878,0.0498 0.15951,-0.12386 0.24045,-0.18422 0.34767,-0.25926 0.12386,-0.0672 0.45224,-0.37442 1.90917,-1.58183 4.07529,-3.2994 6.58112,-3.49949 0.67174,-0.0536 0.1931,0.0416 0.82618,-0.12252 0.51839,-0.12307 1.53449,-0.44464 1.78574,0.29626 0.0584,0.17236 0.0314,0.36265 0.0471,0.54397 -0.33664,0.75378 -1.01513,1.289 -1.7183,1.69391 -8.4812,4.88377 -3.68167,2.0365 -6.3819,3.64106 -0.8703,0.54274 -1.83627,0.7748 -2.84312,0.87407 -0.84685,0.0572 -1.69639,0.0439 -2.54457,0.0391 -0.17611,-0.0783 -1.26237,0.0824 -1.36961,0.0112 -0.26761,-0.17757 -0.24752,-0.49115 -0.29507,-0.76265 0.0693,-0.0898 0.11061,-0.21097 0.20786,-0.26927 1.86538,-1.11842 3.76384,-2.18092 5.65892,-3.24824 3.36613,-1.89583 -18.38011,10.52806 0.81546,-0.45523 1.62928,-0.93223 -3.25335,1.87358 -4.88533,2.80107 -0.12851,0.073 0.24966,-0.15831 0.37448,-0.23747 0.70371,-0.38309 1.26952,-0.94938 1.86652,-1.4712 1.95271,-1.63778 4.20597,-2.67178 6.47578,-3.95703 0.4601,-0.13574 0.24714,-0.0421 0.64206,-0.27345 0.72416,-0.38855 1.29378,-0.26026 1.69768,0.45795 -0.004,0.17434 0.0429,0.3574 -0.0116,0.52302 -0.24281,0.737 -1.47972,1.48845 -2.07765,1.95527 -2.31989,1.78551 -4.92975,3.20162 -7.66196,4.22253 -0.82979,0.20432 -1.67551,0.25109 -2.51464,0.41927 -0.56578,0.0476 -1.61233,0.48831 -2.04357,-0.12469 -0.0929,-0.13203 -0.12059,-0.29949 -0.18089,-0.44923 0.0158,-1.12876 1.13306,-1.75611 1.94935,-2.3598 2.56542,-1.75175 5.28205,-3.30109 8.06332,-4.67785 -1.66042,0.95089 -3.31737,1.90787 -4.98127,2.85268 -0.10232,0.0581 0.19413,-0.13349 0.29606,-0.1923 1.87129,-1.07952 3.745,-2.15487 5.62313,-3.22243 1.68669,-0.95875 -3.36343,1.9349 -5.0488,2.89597 -0.17662,0.10072 0.3453,-0.21486 0.52087,-0.31739 1.94935,-1.49503 0.17154,-0.14788 5.82706,-3.43029 0.0975,-0.0566 0.39151,-0.22359 0.29386,-0.1673 -1.65803,0.95579 -6.61218,3.85687 -4.975,2.86579 5.26479,-3.18711 3.61225,-2.62686 6.09403,-3.41536 0.8405,-0.26814 1.64466,-0.5715 2.5254,-0.69628 0.41224,-0.05 0.8273,-0.0629 1.24183,-0.0772 0,0 -4.989,3.66649 -4.989,3.66649 l 0,0 c -0.40062,0.0302 -0.80206,0.0594 -1.19643,0.14119 -0.83349,0.18946 -1.62899,0.50125 -2.43193,0.79012 -0.13575,0.0709 -0.5394,0.28993 -0.40726,0.21255 1.64295,-0.96199 6.57183,-3.84759 4.94012,-2.86667 -1.86267,1.11976 -3.75428,2.19063 -5.63301,3.28321 -0.10068,0.0586 -0.40569,0.22902 -0.30519,0.17016 1.68084,-0.9844 3.36139,-1.96932 5.04625,-2.94682 0.0864,-0.0501 -0.16689,0.1096 -0.25033,0.1644 -0.34022,0.33002 -0.0986,0.13584 -0.50583,0.37105 -1.86589,1.07772 -3.72218,2.17211 -5.59305,3.24117 -1.67669,0.95809 3.33911,-1.94097 5.0105,-2.90829 0.1035,-0.0599 -0.20454,0.124 -0.3068,0.186 -1.87392,1.08958 -3.74783,2.17916 -5.62174,3.26874 -1.88407,1.00344 -4.25146,2.45822 4.005,-2.38254 0.16589,-0.0973 -0.34157,0.17728 -0.50684,0.27561 -0.35312,0.21011 -0.68031,0.46211 -1.04227,0.65822 -0.72664,0.53029 -1.48942,1.04885 -2.13828,1.66463 -0.0284,-10e-4 -0.10676,-0.0217 -0.0851,-0.003 0.0685,0.0582 0.38116,0.0279 0.39038,0.027 0.45086,-0.0419 0.89487,-0.14481 1.34063,-0.2193 0.82916,-0.14999 1.68791,-0.18417 2.47065,-0.52562 0.42193,-0.16772 1.56189,-0.70269 1.09953,-0.42713 -8.65304,5.15711 -5.85392,3.4689 -4.02615,2.32395 0.4448,-0.36565 0.90499,-0.67971 1.36775,-1.01865 0.26684,-0.19544 0.45872,-0.49255 0.74938,-0.65039 0.0706,-0.0383 0.16055,-0.004 0.24082,-0.007 -0.033,-0.27061 -0.97855,0.27958 -1.11163,0.3292 -1.88066,0.78624 -5.11053,2.88141 4.37617,-2.62411 0.10229,-0.0594 -0.20284,0.12272 -0.29619,0.19533 -0.64981,0.50548 0.10508,0.0178 -0.59868,0.4471 -0.61693,0.52665 -1.17719,1.1142 -1.84835,1.57206 -2.01087,1.19321 -4.05727,2.32631 -6.05891,3.53493 -1.60105,0.96673 6.48029,-3.73789 4.85521,-2.81214 -12.01959,6.84718 -3.50516,2.1108 -0.70926,0.40983 0.0773,-0.047 -0.18086,0.008 -0.2713,0.0126 -0.0943,-0.0881 -0.40133,-0.3534 -0.38899,-0.41764 10e-4,-0.007 1.29054,0.0804 1.30986,0.027 0.83098,-10e-5 1.66598,0.007 2.49106,-0.10647 0.94977,-0.16902 1.83164,-0.50897 2.65314,-1.02185 2.2121,-1.1909 0.0321,-0.0252 -4.09926,2.41179 -0.18041,0.10642 0.37552,-0.1865 0.55579,-0.29316 0.43202,-0.25563 0.57544,-0.38409 0.95618,-0.6904 0.0993,-0.0799 0.19745,-0.16128 0.29618,-0.24192 0.78972,-0.0308 -1.12502,0.11825 -1.14157,0.22494 -0.39403,0.055 -0.79762,0.0947 -1.17522,0.22863 -0.10299,0.0365 -0.39494,0.18578 -0.30083,0.13025 4.76071,-2.80874 6.83182,-3.75248 4.77543,-2.80521 -0.74809,0.5657 0.2904,-0.24646 -0.43642,0.41626 -1.79929,1.6406 -4.1271,2.74778 -6.37016,3.71992 -0.66178,0.24212 -1.34963,0.40528 -1.93662,0.82133 -0.7763,0.33884 -1.58015,0.60789 -2.38785,0.86058 0,0 4.96628,-3.7975 4.96628,-3.7975 z"
         id="path4987"
         style="fill:#ffffff;fill-opacity:0.32618025;stroke:#000000;stroke-linecap:square;stroke-linejoin:miter;stroke-opacity:0.0085837" />
      <path
         inkscape:connector-curvature="0"
         d="m 536.33764,473.26091 c 0.11856,-0.057 0.23526,-0.11803 0.35569,-0.17095 0.59185,-0.26008 0.37438,-0.11911 0.9714,-0.44082 0.17285,-0.0931 0.67982,-0.39328 0.50941,-0.29576 -4.88944,2.7981 -6.24461,3.73565 -4.16458,2.32816 0.85896,-0.5086 1.49899,-1.36009 2.35468,-1.86747 1.89425,-1.1232 3.80733,-2.21434 5.71099,-3.32151 -10.73519,6.19824 -1.61381,0.91957 0.93856,-0.4983 0.55768,-0.30979 1.17237,-0.41143 1.77747,-0.2473 1.03549,0.84584 0.45917,1.92303 -0.13411,2.8457 -2.16817,2.80585 -4.28604,3.35091 -7.82998,5.34296 -0.71507,0.37038 -1.43043,0.70828 -2.21922,0.88494 -0.42651,0.24058 -0.89282,0.35873 -1.36852,0.45142 0,0 4.92969,-3.77062 4.92969,-3.77062 l 0,0 c 0.45433,-0.14186 0.89086,-0.32965 1.34877,-0.45971 0.74055,-0.25776 1.4315,-0.62911 2.15037,-0.94024 -1.62367,0.94696 -3.24733,1.89391 -4.87099,2.84087 0.42499,-0.21463 0.51559,-0.23344 0.89813,-0.54208 0.49946,-0.40296 0.87488,-0.92082 1.34,-1.359 0.184,-0.24693 1.29756,-1.48513 0.68118,-1.70263 -0.37981,0.0343 -0.70617,0.14009 -1.05777,0.29354 -0.15173,0.0662 -0.59033,0.29903 -0.44776,0.21488 1.23538,-0.72914 12.93602,-7.48331 -0.92367,0.5224 8.82954,-5.143 4.45133,-2.83485 2.40377,-0.93855 -2.49706,1.96177 -5.39756,3.32948 -8.23149,4.73199 0,0 4.87798,-3.90192 4.87798,-3.90192 z"
         id="path4989"
         style="fill:#ffffff;fill-opacity:0.32618025;stroke:#000000;stroke-linecap:square;stroke-linejoin:miter;stroke-opacity:0.0085837" />
      <path
         inkscape:connector-curvature="0"
         d="m 447.57254,474.62616 c 0.85452,-0.14024 1.61239,-0.56777 2.43969,-0.81182 1.76655,-0.86327 -0.94119,0.47975 0.76978,-0.43481 0.54192,-0.28967 0.33486,-0.10707 0.90204,-0.3557 0.13839,-0.0607 0.26605,-0.14337 0.39907,-0.21505 -1.63717,0.93556 -3.27435,1.87112 -4.91153,2.80667 0.35993,0.5326 4.23435,-3.01161 6.38968,-3.53067 0.061,-0.0147 0.1303,-0.008 0.18351,-0.0416 0.0203,-0.0126 -0.0117,-0.0935 -0.002,-0.0717 0.13147,0.29784 0.24633,0.60273 0.3695,0.9041 -5.97808,3.84042 -4.10498,2.76078 -8.2505,3.41834 -1.11816,0.11647 -2.18535,0.4671 -3.28762,0.66861 -0.3292,0.0457 -0.58514,0.0595 -0.89607,0.18603 -1.58149,0.64363 -8.19633,4.56847 4.06864,-2.40135 -0.083,-0.19733 -0.30879,-0.72475 -0.30706,-0.80817 0.002,-0.0905 0.35404,-0.0723 0.61146,-0.15171 0.12953,-0.04 0.24839,-0.10866 0.37258,-0.16299 0.15176,-0.0446 0.30351,-0.0893 0.45527,-0.13396 0.78618,-0.44713 1.64513,-0.66122 2.53388,-0.77271 0.80022,-0.15134 1.67184,-0.20693 2.4365,-0.49976 0.7033,-0.14016 1.27576,-0.55524 1.91288,-0.85446 2.10706,-1.26063 -1.44469,0.86711 -4.63415,2.65098 -0.12087,0.0676 0.22297,-0.16479 0.32762,-0.2555 0.3251,-0.28177 0.57269,-0.61681 0.82287,-0.9632 -0.0644,0.11384 0.29812,-0.60634 0.20528,-0.5659 -0.0276,0.012 0.008,0.0647 -0.009,0.0899 -0.0562,0.0865 -0.15426,0.13776 -0.2229,0.2148 -0.0693,0.0326 -0.2744,0.13562 -0.20776,0.0979 1.71544,-0.97027 3.43558,-1.93221 5.15469,-2.89596 0.0897,-0.0503 -0.18181,0.0971 -0.2664,0.15555 -0.20254,0.14 -0.37242,0.3248 -0.58537,0.45121 -1.8819,1.1172 -3.77792,2.21044 -5.66688,3.31565 10.81316,-6.61113 1.77189,-0.40477 -1.16767,0.62397 -0.40873,0.14304 -0.82636,0.20502 -1.25325,0.26176 -0.79782,0.11068 -1.6399,0.40499 -2.35672,0.78169 0,0 4.85423,-3.84065 4.85423,-3.84065 l 0,0 c 0.80049,-0.28114 1.58951,-0.60065 2.44386,-0.67021 0.40142,-0.0957 0.77884,-0.20319 1.15126,-0.3859 0.12629,-0.062 0.49242,-0.27218 0.37091,-0.2013 -0.25597,0.14931 -14.09333,8.18124 0.76164,-0.45853 -1.63156,0.95715 -3.25369,1.93057 -4.89469,2.87144 -0.20643,0.11836 0.39168,-0.27208 0.57072,-0.42882 0.0807,-0.0707 0.12535,-0.18266 0.21801,-0.23672 5.40888,-3.1555 3.50233,-2.79201 5.86615,-3.2053 0.78073,0.18892 0.99981,0.81043 0.69228,1.53676 -1.47055,2.58806 -4.31012,3.66814 -7.01918,4.93249 -0.63039,0.33747 -1.28432,0.59524 -1.98251,0.75826 -0.82205,0.1543 -1.63939,0.33435 -2.46969,0.43945 -0.85788,0.17843 -1.65113,0.51358 -2.46285,0.83573 -0.4125,0.14727 -0.83056,0.2716 -1.24232,0.42053 -0.089,0.0322 -0.18248,0.14233 -0.26623,0.0983 -0.50308,-0.26422 -0.48034,-0.40492 -0.57209,-0.80018 2.56763,-1.46423 4.70826,-3.29704 7.57186,-3.75186 1.08705,-0.22909 2.16517,-0.50094 3.27328,-0.61625 0.58825,-0.073 1.18206,-0.11935 1.76579,-0.22463 2.20328,-0.39736 4.89031,-2.55166 -4.28281,2.72742 0.19001,0.26268 0.3812,0.52451 0.57003,0.78804 0.0129,0.018 -0.02,-0.0505 -0.0421,-0.0513 -0.0449,-0.002 -0.0856,0.0275 -0.12677,0.0454 -1.87992,0.8189 -4.28793,3.34715 4.28638,-2.51487 -2.48326,1.42666 -5.06096,3.14369 -7.79946,4.20408 -0.83512,0.30479 -1.656,0.64869 -2.53229,0.82582 0,0 4.96628,-3.7975 4.96628,-3.7975 z"
         id="path4991"
         style="fill:#ffffff;fill-opacity:0.32618025;stroke:#000000;stroke-linecap:square;stroke-linejoin:miter;stroke-opacity:0.0085837" />
      <path
         inkscape:connector-curvature="0"
         d="m 443.41462,476.35741 c 0.56631,-0.5116 1.1663,-0.9765 1.64816,-1.57237 1.98808,-2.15968 4.6807,-3.6313 7.57074,-3.80318 0.1528,-0.005 0.30559,-0.0103 0.45839,-0.0155 0,0 -4.97909,3.65927 -4.97909,3.65927 l 0,0 c -0.14826,0.0113 -0.29653,0.0226 -0.44479,0.0339 -0.32756,0.0412 -0.54928,0.058 -0.86922,0.14183 -0.13492,0.0353 -0.51701,0.20222 -0.39772,0.12996 8.4529,-5.12009 6.20332,-3.63544 4.37579,-2.56339 -0.50879,0.55556 -0.92853,1.19627 -1.58801,1.59773 0,0 -5.77425,2.39177 -5.77425,2.39177 z"
         id="path4993"
         style="fill:#ffffff;fill-opacity:0.32618025;stroke:#000000;stroke-linecap:square;stroke-linejoin:miter;stroke-opacity:0.0085837" />
      <path
         inkscape:connector-curvature="0"
         d="m 524.33444,860.85404 c 1.58618,-0.70391 3.20727,-1.33027 4.8664,-1.84183 2.22118,-0.75872 4.5284,-1.22873 6.75322,-1.97009 1.81366,-0.58673 3.65318,-1.09096 5.44324,-1.74813 -0.45379,0.36356 1.72955,-0.96273 1.29858,-0.71951 -9.15948,5.16928 -5.791,3.38292 -3.84863,2.12553 0.21087,-0.13651 0.41718,-0.27992 0.62578,-0.41988 1.39239,-0.95013 2.81517,-1.85691 4.26035,-2.72462 2.99237,-1.97651 6.13644,-3.58856 9.3554,-5.10128 0.14743,-0.0535 0.30034,-0.0938 0.44228,-0.16055 0.23755,-0.11166 0.46178,-0.24972 0.69124,-0.37719 0.1126,-0.0625 0.43875,-0.26998 0.32694,-0.20602 -5.2028,2.97597 -7.04891,4.18956 -4.94711,2.81903 2.5964,-1.72716 5.24866,-3.43249 8.10258,-4.69334 0.48712,-0.11121 1.75498,-0.79081 2.14367,-0.16351 0.0985,0.15896 0.1209,0.35393 0.18135,0.53089 -0.23328,0.28199 -0.41103,0.62119 -0.69984,0.84597 -0.56977,0.44345 -1.21884,0.77526 -1.84503,1.13468 -2.59456,1.48925 -5.20459,2.95145 -7.81612,4.41071 -2.95938,1.65364 -5.9627,3.22173 -8.98578,4.75452 -5.37182,2.64421 -10.95391,4.79083 -16.56454,6.86026 -2.76559,1.05702 -5.67689,1.67706 -8.42415,2.77404 -0.97288,0.52303 -2.00643,0.89954 -3.05196,1.24307 -0.17352,0.057 -0.67581,0.27037 -0.51815,0.17818 1.82858,-1.06925 3.6929,-2.0762 5.53934,-3.1143 -0.12562,-0.2983 -0.3636,-0.5715 -0.37685,-0.8949 -0.005,-0.1206 0.22243,-0.0938 0.33448,-0.1387 0.26513,-0.10615 0.53249,-0.20669 0.79701,-0.31433 2.20981,-0.89924 4.4386,-1.70821 6.68769,-2.50659 6.83926,-2.28058 13.28127,-5.51393 19.70554,-8.74359 4.69815,-2.35127 9.36021,-4.80084 14.19456,-6.86579 0.88789,-0.30454 1.64504,-0.88323 2.49751,-1.25882 0.13526,-0.0596 0.39323,-0.27816 0.42287,-0.13336 0.37134,1.81396 -1.13136,2.0619 -2.43205,3.00367 -6.16894,4.26044 -12.67032,8.01284 -19.24824,11.59966 -1.81302,0.98862 -5.83347,2.90454 -7.74897,3.82998 -2.74074,1.26676 -5.53093,2.42568 -8.33794,3.53687 -0.12054,0.0477 -2.47417,0.98443 -2.91815,1.04723 -0.17817,0.0252 -0.34801,-0.0917 -0.52202,-0.13757 0.37135,-3.76148 5.67777,-4.12451 8.70966,-5.72585 0.74568,-0.39385 2.71722,-0.61241 2.18844,-1.26934 -0.53044,-0.65898 -2.95039,1.65658 -2.21927,1.23104 2.6943,-1.56818 5.40609,-3.10611 8.10914,-4.65916 5.89917,-3.12004 11.92629,-5.98589 17.87386,-9.01031 1.19806,-0.62182 2.43514,-1.16158 3.66309,-1.72012 0.15957,-0.0726 0.61733,-0.3237 0.48009,-0.21465 -5.66141,4.49837 -3.77934,3.43691 -7.33904,5.21987 -7.4047,4.2636 -15.01136,8.13273 -22.77118,11.70286 -2.97405,1.31253 -3.307,1.4851 -6.13547,2.64545 -0.67508,0.27695 -1.3689,0.50922 -2.03338,0.81072 -0.21119,0.0958 -0.77245,0.51318 -0.58461,0.37718 6.50654,-4.71089 3.84413,-3.38018 8.12999,-5.24789 10.53295,-4.68347 20.86606,-9.80925 31.22307,-14.86779 3.77345,-1.92086 2.69964,-1.3247 5.89271,-3.10559 0.50814,-0.28341 2.02577,-1.14569 1.51919,-0.85952 -1.60292,0.9055 -6.20878,1.52265 -4.8082,2.71751 0.87673,0.74795 8.99326,-3.99401 3.9443,-1.11849 -8.4326,4.99543 -16.91504,9.90655 -25.58081,14.4872 0,0 4.21347,-3.38419 4.21347,-3.38419 l 0,0 c 5.28712,-2.75802 10.55683,-5.56409 15.53492,-8.86046 1.94569,-1.17404 7.41398,-4.56925 7.96448,-3.49176 0.26917,0.52685 -11.38925,6.2428 -12.8358,6.92897 -10.63264,5.02734 -21.21519,10.15668 -31.79197,15.29996 -0.81432,0.37168 -2.9421,1.85809 -2.44297,1.11503 2.45592,-3.65612 3.388,-3.3323 6.29278,-4.45365 2.44157,-0.94254 3.27629,-1.33034 5.80438,-2.41285 3.21699,-1.46397 4.74486,-2.12645 7.96127,-3.73105 5.22677,-2.60754 10.28452,-5.53212 15.34672,-8.44143 0.58713,-0.32076 2.22834,-1.44141 1.7614,-0.96227 -1.35429,1.38966 -2.95074,2.52171 -4.46438,3.73585 -0.10423,0.0836 -0.25013,0.0942 -0.37373,0.14495 -1.13254,0.46514 -2.24915,0.96956 -3.34878,1.50781 -5.85905,2.86354 -11.77727,5.61365 -17.49804,8.75103 1.58993,-0.92763 14.8525,-8.66903 -6.13086,3.62572 -0.79471,0.46565 -1.58608,0.93791 -2.39679,1.37509 -0.56852,0.30658 -2.27524,1.21496 -1.73887,0.85509 1.36525,-0.91601 2.97095,-1.47724 4.23428,-2.52938 0.23543,-0.19606 -0.58698,-0.17583 -0.88047,-0.26375 0.62461,0.0292 2.34961,-0.71589 2.74195,-0.86235 2.66709,-0.99556 5.31412,-2.05096 7.89993,-3.2438 1.21282,-0.5806 2.43257,-1.14696 3.63847,-1.74181 1.32803,-0.65509 2.61918,-1.38538 3.96283,-2.00779 0.20808,-0.0964 -0.74104,0.53774 -0.5423,0.42333 3.43921,-1.98002 6.76921,-4.15052 10.01551,-6.43104 1.14043,-0.84882 1.49818,-1.84057 2.78379,-1.12281 0.0964,0.0538 -0.20248,0.088 -0.30185,0.13599 -0.77573,0.37472 -1.5385,0.77867 -2.34825,1.07918 -4.63986,1.92555 -9.12636,4.205 -13.61393,6.4558 -6.48438,3.26713 -13.00751,6.48089 -19.90055,8.8153 -2.43183,0.92681 -4.82393,1.88366 -7.20016,2.9422 -0.30681,0.13667 -0.61399,0.27262 -0.92328,0.40358 -0.14188,0.0601 -0.3022,0.25542 -0.43004,0.16943 -0.27712,-0.1864 -0.37108,-0.55539 -0.55662,-0.83308 1.97504,-1.11474 3.9344,-2.25773 5.92512,-3.34422 0.34487,-0.18822 0.74985,-0.23636 1.11711,-0.37594 0.78632,-0.29885 1.5426,-0.66758 2.32328,-0.98013 2.66247,-0.95036 5.44896,-1.5176 8.10079,-2.51024 5.54605,-1.9745 11.02472,-4.12761 16.30415,-6.74658 3.11257,-1.58647 2.86456,-1.43324 5.96479,-3.12309 1.02945,-0.56113 1.97778,-1.29742 3.07838,-1.70155 0.91032,-0.33427 -1.66983,0.98665 -2.49937,1.48893 -0.73952,0.44779 2.07919,-1.31787 2.27975,-1.23667 0.076,0.0622 0.16481,0.11146 0.22793,0.18671 0.076,0.0906 -0.22313,0.0797 -0.33821,0.10677 -0.4719,0.11098 -0.92746,0.28048 -1.36272,0.49311 -2.04761,1.06544 -5.04958,2.78899 4.33364,-2.57371 1.07928,-0.61683 -2.19468,1.25248 -1.08602,0.75379 -2.60443,1.51212 -5.09081,3.26009 -7.86825,4.43844 -2.28286,1.09841 -7.6781,3.82126 1.86876,-1.34972 -1.43927,0.84084 -2.83956,1.74467 -4.22952,2.66276 -0.5871,0.42028 -1.17201,0.80649 -1.79396,1.17221 -2.41143,1.41798 -4.8404,3.17035 -7.49896,4.23844 -1.7772,0.60729 -3.59084,1.0974 -5.379,1.6708 -2.25029,0.67763 -4.54056,1.22341 -6.76548,1.9862 -1.70921,0.58721 -3.40536,1.23886 -5.00869,2.07792 0,0 5.22386,-4.17858 5.22386,-4.17858 z"
         id="path4995"
         style="fill:#ffffff;fill-opacity:0.32618025;stroke:#000000;stroke-linecap:square;stroke-linejoin:miter;stroke-opacity:0.0085837" />
      <path
         inkscape:connector-curvature="0"
         d="m 572.55627,853.91355 c -4.09682,2.6935 -8.46808,4.74806 -13.01613,6.5011 -0.99584,0.23199 -2.08932,0.92755 -3.13099,0.98309 -0.55722,0.0297 -0.93105,-0.43613 -0.55183,-1.09414 0.2713,-0.47076 0.82299,-0.70964 1.23448,-1.06446 4.46828,-2.68656 9.03659,-5.19749 13.62189,-7.67615 2.82906,-1.52929 4.00647,-2.24465 6.92316,-3.63999 1.24295,-0.59463 2.51132,-1.13458 3.76698,-1.70186 6.01366,-2.49626 12.22721,-4.5172 18.54618,-6.08362 0.27639,0.98321 1.51768,-0.93543 2.0122,-0.45734 0.23097,0.22328 0.44697,0.7521 0.18996,0.94484 -6.4804,4.86005 -4.47018,2.69272 -8.3049,4.64494 -0.79718,0.40584 -1.56715,0.86304 -2.35073,1.29456 0.68676,-0.38276 2.70714,-1.59521 2.06029,-1.14829 -0.23101,0.15961 -7.27897,4.43869 -7.3069,4.4553 -5.24334,3.11823 -10.57331,6.09071 -15.92581,9.01644 -5.1197,2.73157 -10.26341,5.42751 -15.53341,7.85998 -1.29459,0.52699 -2.50046,1.23388 -3.748,1.85675 -0.22301,0.11135 -0.44074,0.23725 -0.67588,0.31998 -0.0674,0.0237 -0.27082,0.0369 -0.21428,-0.007 1.90498,-1.4722 3.86487,-2.87191 5.79731,-4.30786 4.34187,-2.45758 8.70057,-4.88346 13.02637,-7.36999 -0.39772,0.21933 -1.57311,0.90687 -1.19318,0.65798 1.09918,-0.72006 2.23984,-1.3748 3.35309,-2.07292 3.13924,-1.96861 6.253,-3.97694 9.39669,-5.93878 2.74802,-1.31771 5.2392,-3.09599 7.90515,-4.56171 0.25149,-0.13826 0.48512,-0.32843 0.76364,-0.3976 0.66851,-0.16601 0.53955,0.91046 0.4268,1.14788 -0.19641,0.41357 -0.65449,0.64042 -0.98173,0.96062 -3.51141,3.01892 -7.61261,5.24781 -11.63471,7.49898 -8.79437,4.9222 -6.71069,3.79153 -13.29684,7.21365 -3.27065,1.61771 -6.51402,3.29207 -9.81441,4.84928 -0.65081,0.30707 -1.30164,0.61487 -1.96326,0.89788 -0.31864,0.1363 -0.67362,0.52917 -0.97565,0.35924 -0.30321,-0.1706 -0.13655,-0.68228 -0.20482,-1.02342 0.41225,-0.29774 0.80803,-0.61974 1.23676,-0.89323 0.69693,-0.44459 1.41916,-0.84841 2.13676,-1.2588 9.24204,-5.2854 5.91862,-3.36698 12.63692,-7.13073 1.61223,-0.90322 3.16014,-1.91673 4.7409,-2.87397 4.16345,-2.52151 8.29377,-5.09722 12.45244,-7.62654 2.36385,-1.43771 4.75503,-2.81336 7.03829,-4.37636 0.19555,-0.17094 0.38141,-0.35364 0.58665,-0.51282 0.0123,-0.01 0.0386,0.0154 0.0351,0.0306 -0.0536,0.23681 -0.0237,0.5339 -0.20055,0.70025 -0.32255,0.30338 -0.7945,0.39172 -1.18413,0.60212 -1.42997,0.77215 -2.84179,1.5775 -4.26848,2.3557 -6.07178,3.38748 -12.09164,6.85998 -18.27598,10.03915 -3.45595,1.8168 -7.0702,3.29701 -10.59527,4.967 1.80459,-1.02482 3.7586,-1.8226 5.41378,-3.07448 0.24315,-0.1839 -0.2781,-0.62075 -0.15777,-0.90086 0.0896,-0.20862 0.42587,-0.15811 0.64224,-0.22695 1.36794,-0.43523 2.7355,-0.87225 4.10594,-1.30097 4.51538,-1.59619 9.07932,-3.04477 13.61274,-4.5887 2.91453,-0.91317 5.99106,-3.17754 -3.62504,3.33115 -0.235,0.15906 -0.55049,0.13848 -0.82327,0.21667 -1.55626,0.4461 -1.24403,0.36814 -2.85934,0.97848 -3.65131,1.45224 -7.2277,3.08257 -10.84827,4.60902 -1.42954,0.66634 -1.27449,0.56533 -2.53303,1.24706 -0.18331,0.0993 -0.70535,0.441 -0.54319,0.30999 2.74818,-2.2203 4.11799,-3.69917 6.81155,-4.97432 4.31601,-2.15633 8.55472,-4.46949 12.73678,-6.87474 0.53443,-0.29471 1.06809,-0.59081 1.60329,-0.88412 2.60998,-1.4304 5.43331,-3.51033 -3.84738,3.34853 -0.18577,0.13729 -0.42886,0.17189 -0.64195,0.26108 -0.32133,0.13451 -0.64085,0.27333 -0.96127,0.40999 -0.38754,0.16131 -0.77507,0.32263 -1.16261,0.48394 0,0 5.00557,-3.95415 5.00557,-3.95415 l 0,0 c 0.4016,-0.17478 0.8032,-0.34957 1.20479,-0.52435 0.34614,-0.15407 0.69185,-0.30911 1.03842,-0.46219 0.26322,-0.11627 1.00711,-0.53578 0.79094,-0.34586 -4.00522,3.51891 -4.18039,3.64536 -7.77114,5.5009 -4.29839,2.40713 -8.63286,4.75186 -12.99332,7.04436 -0.37522,0.20273 -0.74765,0.41072 -1.12566,0.6082 -0.22347,0.11675 -0.87103,0.49708 -0.67848,0.33432 3.95483,-3.34282 4.25957,-3.85637 7.94396,-5.37614 3.64796,-1.51152 7.22955,-3.17777 10.90488,-4.62237 1.33377,-0.49044 1.73149,-0.66314 3.06315,-1.05492 0.34838,-0.1025 1.3193,-0.52251 1.05437,-0.27414 -3.93388,3.68801 -3.47607,3.57456 -6.65048,4.47321 -4.5616,1.454 -9.12982,2.88766 -13.60886,4.58455 -2.64587,0.90763 -0.94044,0.31749 -3.22774,1.11911 -0.37747,0.13229 -0.75515,0.26402 -1.13287,0.39561 -0.2571,0.0896 -0.51084,0.34617 -0.77158,0.26786 -0.34065,-0.10232 -1.05281,-0.50956 -0.77577,-0.73263 1.76326,-1.41976 3.92554,-2.25596 5.88831,-3.38394 3.38553,-1.44306 6.77096,-2.89019 10.04816,-4.57029 6.21097,-3.18298 12.25565,-6.66814 18.3283,-10.10555 1.54126,-0.86875 3.05804,-1.7828 4.6267,-2.60103 0.47127,-0.24582 0.91747,-0.60366 1.44399,-0.67643 0.27255,-0.0377 1.42545,0.21032 0.97245,0.85829 -0.20591,0.29453 -0.55391,0.458 -0.83087,0.687 -2.5296,1.65907 -5.16032,3.13181 -7.75737,4.68281 -4.24702,2.53637 -8.44066,5.16065 -12.67729,7.71416 -5.97117,3.62981 -12.01556,7.13021 -18.09159,10.58153 -0.51902,0.29482 2.04819,-1.22505 1.5522,-0.89296 -0.94463,0.63246 -1.98929,1.10646 -2.91238,1.77453 -0.26093,-0.13689 -0.72487,-0.12177 -0.78277,-0.41067 -0.0452,-0.22522 0.44853,-0.10613 0.66237,-0.19 0.59953,-0.23516 1.18667,-0.50108 1.77385,-0.76556 3.14896,-1.41835 6.23499,-2.9721 9.33509,-4.49243 1.42305,-0.73832 2.82097,-1.52724 4.26916,-2.21495 0.10247,-0.0487 -0.29391,0.33317 -0.19388,0.27968 1.28751,-0.68845 2.52869,-1.46033 3.78692,-2.20094 2.44363,-1.43836 4.92826,-2.85497 6.99989,-4.821 0.28116,-0.24087 0.49634,-0.59391 0.84347,-0.72261 0.18846,-0.0699 0.7093,0.17151 0.53679,0.27465 -1.66376,0.99462 -5.29288,2.58709 2.14332,-1.33814 -7.19741,4.3632 -14.22813,8.99831 -21.6014,13.06894 -4.61134,2.67336 -9.22109,5.35152 -13.86496,7.96744 1.5842,-1.27737 3.1798,-2.54071 4.75259,-3.83211 0.0145,-0.0119 -0.0619,-0.0235 -0.0456,-0.0327 1.31464,-0.74198 2.76789,-1.25166 4.11577,-1.92441 5.11386,-2.32584 10.10527,-4.9068 15.06725,-7.53842 1.13682,-0.6146 2.25169,-1.27163 3.41044,-1.84378 0.30348,-0.14985 -1.13418,0.73713 -0.83788,0.57353 6.41348,-3.54122 12.38605,-7.81637 18.85565,-11.26486 0.86215,-0.47901 1.71649,-0.97235 2.58645,-1.43702 0.58563,-0.31279 2.33177,-1.2633 1.77943,-0.8949 -1.44336,0.96271 -3.1188,1.58251 -4.46014,2.68292 -1.14859,0.94228 2.05141,0.16151 0.2116,0.46034 -0.40283,0.0654 -0.80075,0.15821 -1.20112,0.23732 -6.14369,1.35613 -12.16772,3.26979 -17.94641,5.76401 -3.82983,1.77082 -3.6721,1.63438 -7.3414,3.57618 -2.29023,1.212 -4.48993,2.59731 -6.82266,3.72534 -0.72788,0.35198 1.59092,-0.59291 2.09212,-1.22734 0.48383,-0.61245 -1.35736,0.7709 -2.03604,1.15635 -0.79918,0.54928 -0.82921,0.97778 -1.59281,0.55945 -0.0627,-0.0344 0.14429,0.005 0.21437,-0.009 0.24948,-0.0509 0.49646,-0.11462 0.74087,-0.18602 0.77887,-0.22755 1.42566,-0.47408 2.19483,-0.74997 1.02849,-0.40049 1.67793,-0.64083 2.6946,-1.0888 2.37327,-1.04571 9.33324,-4.66646 -0.84342,0.97914 0,0 6.17953,-2.4799 6.17953,-2.4799 z"
         id="path4997"
         style="fill:#ffffff;fill-opacity:0.32618025;stroke:#000000;stroke-linecap:square;stroke-linejoin:miter;stroke-opacity:0.0085837" />
      <path
         inkscape:connector-curvature="0"
         d="m 352.60653,856.06735 c 4.92417,-2.63075 9.76183,-5.41283 14.72041,-7.98108 2.21895,-1.19179 4.47351,-2.31571 6.76904,-3.35231 0.46099,-0.20817 0.921,-0.41932 1.3902,-0.60825 0.27144,-0.10929 0.54098,-0.33122 0.83004,-0.28573 0.20968,0.033 0.27754,0.32123 0.4163,0.48185 -0.11306,0.30326 -0.14048,0.65429 -0.33917,0.90977 -0.28226,0.36294 -2.46045,1.94184 -2.62027,2.05694 -2.46255,1.77343 -5.00049,3.44296 -7.51586,5.1396 -4.31155,2.88256 -8.86426,5.37089 -13.37112,7.92773 -2.03996,1.15731 -4.0786,2.31662 -6.14174,3.43194 -1.33047,0.69851 -2.65491,1.40549 -4.04349,1.98329 -0.0499,0.0208 -1.09492,0.64411 -1.26507,0.078 -0.1032,-0.34331 0.0483,-0.71535 0.0725,-1.07303 0.38753,-0.43031 0.75142,-0.88316 1.16261,-1.29091 1.39472,-1.38308 3.36327,-3.03214 4.82707,-4.24575 2.88644,-2.39309 5.84877,-4.69242 8.79886,-7.00581 1.50068,-0.68698 2.42934,-2.11743 3.76048,-3.01827 0.10544,-0.0714 -0.26037,0.39961 -0.14117,0.35489 1.58298,-0.59395 2.99135,-1.67889 4.64226,-2.04374 0.84321,-0.18636 -1.42747,0.97304 -2.12167,1.48668 -0.81435,0.60255 -1.6018,1.24062 -2.4027,1.86093 -4.72884,3.75172 -9.52506,7.41817 -14.33064,11.07086 -1.04793,-0.3526 -1.08497,1.28568 -1.85146,1.44665 -0.11528,0.0242 -0.0311,-0.23353 -0.0466,-0.3503 0.14002,-0.24748 0.68271,-0.85142 0.42006,-0.74246 -1.2985,0.5387 -4.89883,2.76044 -3.66411,2.0883 2.83688,-1.5443 5.64734,-3.13667 8.47101,-4.70501 6.07249,-3.17058 11.93279,-6.7244 17.90908,-10.06731 2.70296,-1.51193 4.80788,-2.59643 7.51874,-4.01982 1.72462,-0.82328 3.42369,-1.69839 5.13993,-2.53865 0.44596,-0.21835 0.8712,-0.49061 1.34393,-0.64255 1.00072,-0.32164 0.52748,0.93824 0.14828,1.38083 -0.53638,0.62603 -1.33897,0.9621 -2.00846,1.44315 -4.81089,3.46644 -9.85963,6.58211 -14.79739,9.86051 -2.78812,1.85116 -5.11869,3.45635 -7.884,5.34506 -3.54467,2.39513 -7.00393,4.9128 -10.50909,7.36437 -2.01323,1.40809 -4.05519,2.74902 -5.99349,4.259 -0.10137,0.12985 -0.23209,0.5377 -0.30411,0.38954 -0.42382,-0.87192 1.00971,-1.11789 1.30629,-1.26534 0.58157,-0.28912 2.27898,-1.24512 1.7243,-0.90726 -1.05898,0.64502 -2.0942,1.35275 -3.23874,1.82972 -0.84548,0.35234 1.5552,-0.96812 2.3328,-1.45219 6.67292,-4.05027 13.47229,-7.90838 20.32793,-11.64377 2.08206,-1.05781 7.82259,-4.30718 -1.91215,1.19426 -0.10477,0.0592 0.22536,-0.30009 0.29786,-0.20403 0.17113,0.22673 0.29788,0.57635 0.17728,0.83355 -0.10886,0.23216 -0.47236,0.19965 -0.70854,0.29948 -0.40214,0.17902 -0.81146,0.3427 -1.20641,0.53706 -0.49772,0.24494 -0.98441,0.51193 -1.47002,0.78007 -0.53617,0.29606 -2.14236,1.18695 -1.59492,0.91231 1.23107,-0.61759 2.34191,-1.5022 3.64715,-1.94186 0.65045,-0.2191 -1.09838,0.82418 -1.62737,1.26151 -0.54151,0.44767 -1.05505,0.92814 -1.58258,1.39221 -1.42374,1.30024 -2.7335,2.71668 -4.09056,4.0839 -0.0146,0.0147 0.0499,-0.061 0.0305,-0.054 -1.75284,0.62754 -3.49648,1.28052 -5.24472,1.92077 7.69386,-4.91689 15.27188,-10.01238 22.94376,-14.96288 4.97232,-3.18215 10.09823,-6.11577 15.24109,-9.01068 0.43264,-0.24353 2.96109,-1.63592 3.79157,-1.88109 0.19436,-0.0574 0.40466,0.0229 0.60699,0.0343 -0.0377,0.39364 0.0826,0.83728 -0.1131,1.18092 -0.25971,0.4561 -0.77051,0.71302 -1.16346,1.06096 -0.46786,0.41426 -0.9397,0.82415 -1.41874,1.22543 -1.83475,1.53696 -3.77185,2.92161 -5.71063,4.32263 -3.91035,2.69535 -7.78839,5.43568 -11.62887,8.22956 -0.52591,0.38327 -1.28649,0.92105 -1.81066,1.35516 -0.0965,0.0799 -0.19664,0.36367 -0.2695,0.2618 -0.56063,-0.78376 0.37849,-0.84538 0.76595,-0.98474 0.39489,-0.14203 0.79123,-0.28003 1.18684,-0.42005 2.49625,-0.94775 5.00437,-1.89254 7.61087,-2.48947 0.97605,-0.16724 3.15778,-0.90954 3.32658,0.7345 0.028,0.27278 -0.0713,0.54377 -0.10696,0.81565 -0.88294,2.11525 -2.3184,3.93448 -3.70609,5.73747 -0.0711,0.12519 -0.1004,0.46495 -0.21327,0.37558 -0.14886,-0.11787 -0.12451,-0.40368 -0.0308,-0.56881 0.13187,-0.23231 0.42186,-0.32781 0.63279,-0.49171 -1.30055,0.73384 -2.57879,1.5087 -3.90166,2.2015 -0.83061,0.43501 1.61605,-0.95131 2.42376,-1.4275 0.97694,-0.57597 1.95347,-1.15265 2.9302,-1.72897 6.76643,-3.91146 13.42493,-8.03082 20.45473,-11.46101 0.52378,-0.13638 5.26103,-2.96653 4.66364,-0.43448 -0.0739,0.31326 -0.3423,0.54518 -0.51345,0.81777 -2.58865,3.05544 -5.47981,5.84067 -8.36334,8.61448 -1.07411,0.85939 -1.99178,1.89586 -2.9927,2.82969 -0.0223,0.0208 -0.004,-0.0649 0.0127,-0.0906 0.12225,-0.19224 0.21115,-0.42544 0.39822,-0.55546 0.36099,-0.25088 0.79809,-0.36887 1.19714,-0.5533 0.56033,-0.3129 2.24217,-1.25006 1.68099,-0.93869 -1.01424,0.56274 -1.88029,1.68541 -3.04016,1.69281 -1.0508,0.007 1.771,-1.13161 2.66094,-1.69039 4.57734,-2.87401 9.2524,-5.52756 13.94265,-8.2217 3.33902,-1.87842 1.72489,-1.00063 4.83646,-2.64425 0,0 -4.70362,3.77784 -4.70362,3.77784 l 0,0 c -2.95636,1.54296 -1.41664,0.71689 -4.61344,2.48886 0.65699,-0.39215 2.62997,-1.56518 1.97095,-1.17645 -5.93197,3.49896 -11.57845,7.47134 -17.70503,10.64186 -0.47668,0.19321 -0.92065,0.50836 -1.43003,0.57962 -0.29197,0.0408 -1.54997,-0.036 -1.18484,-0.82008 0.14667,-0.31494 0.47451,-0.5083 0.72831,-0.74553 0.82569,-0.77178 1.72646,-1.46072 2.55036,-2.23435 2.83053,-2.64989 5.64467,-5.34614 8.08535,-8.36626 0.51543,-0.61359 0.26222,-0.63819 0.86499,-0.53644 0.0506,0.009 -0.10313,-0.0125 -0.15374,-0.004 -0.22936,0.0371 -0.46131,0.0697 -0.68288,0.13961 -1.00504,0.31701 -2.00804,0.80074 -2.96324,1.22394 -0.66974,0.32492 -1.3447,0.6393 -2.00923,0.97475 -0.77167,0.38954 -2.72568,1.95168 -2.2989,1.19997 0.48009,-0.84561 3.44116,-1.70515 2.48507,-1.52787 -1.02456,0.18998 -1.80394,1.04358 -2.7041,1.56849 -8.53073,4.97444 2.89453,-1.66586 -5.78261,3.37334 -3.95141,2.38158 -7.88009,4.8521 -11.91321,7.08481 -0.54758,0.30313 -1.34104,0.65561 -1.56815,-0.29975 -0.0458,-0.19258 0.19639,-0.34374 0.29459,-0.5156 1.37312,-1.72535 2.82257,-3.41866 3.74955,-5.44247 0.0452,-0.11666 0.27628,-0.63393 0.22052,-0.69644 -0.36898,-0.41368 -2.19885,0.17001 -2.64751,0.20417 -2.5683,0.63245 -5.05162,1.55148 -7.5167,2.50353 -0.4285,0.15179 -0.85066,0.32284 -1.2855,0.45537 -0.65014,0.19814 -1.45569,0.64545 -1.7565,-0.42347 -0.0505,-0.1795 0.23808,-0.28942 0.37927,-0.41124 0.43934,-0.37904 1.58228,-1.16412 1.9887,-1.45085 3.96599,-2.77077 7.90411,-5.58045 11.88769,-8.32578 1.86491,-1.36265 3.75348,-2.68787 5.51501,-4.18472 0.44885,-0.38141 0.88365,-0.77909 1.32217,-1.17235 0.33008,-0.29601 0.57626,-0.72028 0.98357,-0.89544 0.23804,-0.10236 0.50926,0.096 0.76389,0.14397 -0.73016,0.0234 -3.25222,1.65671 -3.49275,1.58024 -0.70266,-0.22338 2.52965,-1.51471 1.88225,-1.16184 -2.28624,1.24613 -5.63657,3.34227 -7.80103,4.66876 -7.33469,4.71027 -14.56821,9.58349 -21.78996,14.4636 -2.30575,1.05894 -4.59497,2.15462 -6.91723,3.1768 -0.0649,0.0286 0.0609,-0.13156 0.11163,-0.18119 0.21683,-0.21236 0.46251,-0.39336 0.68539,-0.59936 1.28091,-1.18388 2.46727,-2.46405 3.7504,-3.64577 0.73675,-0.67389 2.29663,-2.15894 3.15075,-2.71155 3.67802,-2.37966 7.46613,-4.75406 11.4794,-6.55988 0.30734,-0.11054 0.60566,-0.41281 0.92202,-0.33162 1.08373,0.27815 0.7117,0.8211 0.26696,1.08529 -2.93091,1.74111 -5.86637,3.45475 -8.91849,4.96747 -2.2655,1.20562 -4.5121,2.433 -6.74318,3.70171 -0.95595,0.5436 -1.88048,1.14624 -2.86657,1.63303 -0.74108,0.36584 2.77695,-1.78337 2.12981,-1.26933 -0.78016,0.61971 -1.68791,1.05913 -2.53186,1.5887 -4.07394,2.61426 -3.03059,1.99026 -9.45088,5.63247 -0.6187,0.35099 -1.25046,0.68145 -1.89968,0.97212 -0.36355,0.16277 -2.06411,1.21328 -2.36791,-0.0855 -0.0652,-0.27882 0.3742,-0.43354 0.5613,-0.65031 2.12596,-1.59812 4.35915,-3.0094 6.55609,-4.50766 3.6061,-2.45929 7.14086,-5.02295 10.75629,-7.46888 2.12404,-1.45564 5.68644,-3.90794 7.83737,-5.33876 4.74231,-3.15465 9.63581,-6.1002 14.155,-9.57769 1.80512,-1.3296 1.03361,-1.33583 2.63028,-1.1253 0.0313,0.004 -0.0641,0.004 -0.0934,0.0161 -0.36978,0.14996 -0.73817,0.30376 -1.10157,0.46857 -1.24487,0.56457 -3.68166,1.7451 -4.77918,2.27211 -8.61429,4.44039 -16.93023,9.41435 -25.41738,14.08923 5.18428,-3.23254 -2.91803,1.84335 -5.52497,3.13828 -0.36019,0.17892 -0.83223,0.14415 -1.20653,-0.003 -0.16447,-0.0647 -0.2066,-0.36504 -0.11669,-0.51719 0.46757,-0.79118 1.9171,-0.72003 2.22868,-1.62308 4.92045,-3.60973 9.79704,-7.28381 14.53309,-11.13344 4.17692,-3.38054 5.22842,-4.38999 11.16774,-6.81407 0.20617,-0.0842 0.15962,0.49611 0.0178,0.66782 -0.32178,0.38964 -4.13433,3.18692 -4.13954,3.19081 -4.88755,3.75556 -9.92959,7.4365 -14.10276,12.00212 -0.18636,-0.002 -0.37391,0.0145 -0.55909,-0.007 -0.0305,-0.003 0.05,-0.0368 0.0785,-0.0482 0.21993,-0.0873 0.44745,-0.15522 0.66547,-0.24723 1.31957,-0.55686 2.57818,-1.24318 3.85314,-1.89213 3.03448,-1.62904 0.31221,-0.15441 3.6486,-2.00549 0.74658,-0.41422 2.61753,-2.00192 2.24456,-1.2339 -0.39841,0.82041 -3.14017,1.85497 -2.33665,1.42352 1.56946,-0.84273 4.30267,-2.6239 5.78406,-3.56732 2.3811,-1.62869 4.77805,-3.23645 7.10237,-4.94616 0.47415,-0.34877 0.9434,-0.70425 1.40857,-1.0649 0.31604,-0.24503 0.58532,-0.55756 0.93481,-0.75193 0.17107,-0.0951 0.38681,-0.0604 0.58022,-0.0907 0.43603,0.31453 0.287,0.11104 -0.41,0.37656 -2.66283,1.01441 -5.17583,2.3875 -7.71503,3.66638 -5.15349,2.68513 -10.19778,5.56474 -15.24815,8.43795 0,0 5.05551,-4.09015 5.05551,-4.09015 z"
         id="path4999"
         style="fill:#ffffff;fill-opacity:0.32618025;stroke:#000000;stroke-linecap:square;stroke-linejoin:miter;stroke-opacity:0.0085837" />
      <path
         inkscape:connector-curvature="0"
         d="m 279.44246,856.51751 c 0.63664,-0.26258 1.2791,-0.51148 1.90991,-0.78776 2.92761,-1.2822 3.23667,-1.55023 6.475,-2.95438 5.26325,-2.28215 10.59295,-4.4104 15.85887,-6.68869 4.34371,-1.96028 8.66678,-3.96582 13.00133,-5.94598 1.1923,-0.54468 3.43373,-1.59065 4.80197,-2.04161 0.40609,-0.13384 0.8335,-0.19128 1.25025,-0.28692 0.16141,0.16364 0.52943,0.26556 0.48422,0.49091 -0.25205,1.25628 -2.09024,2.21914 -2.88354,2.75314 -0.92924,0.6255 -1.87925,1.21957 -2.81932,1.8287 -4.32636,2.80331 -1.92139,1.22279 -6.30562,4.13902 -7.02675,4.63928 -13.76505,9.6836 -20.36004,14.9122 -1.84807,1.49104 -3.74236,2.92268 -5.61539,4.38179 -0.27144,0.21146 -0.54446,0.42092 -0.81403,0.63477 -0.11571,0.0918 -0.20068,0.32589 -0.34172,0.28206 -0.14124,-0.0439 -0.0818,-0.28426 -0.12268,-0.4264 0.0134,-0.19197 -0.073,-0.42034 0.0402,-0.57592 0.14742,-0.20247 0.43314,-0.25165 0.65155,-0.37424 0.32076,-0.18003 0.64478,-0.35421 0.96592,-0.53359 0.42183,-0.23563 1.68632,-0.94425 1.26295,-0.71141 -4.32953,2.38098 -5.20936,3.0411 -2.23719,1.04387 7.38215,-5.3013 15.73246,-8.97466 23.92052,-12.81499 8.9822,-4.11919 18.02419,-8.09799 26.94621,-12.3481 2.53778,-1.25113 5.05841,-2.53477 7.55916,-3.858 0,0 -4.7848,3.83766 -4.7848,3.83766 l 0,0 c -2.36167,1.18762 -4.73778,2.34531 -7.12428,3.48238 -8.92996,4.13182 -17.95432,8.05492 -26.84598,12.26902 -1.3312,0.6293 -6.59059,3.11118 -7.96919,3.78002 -1.25115,0.607 -2.43209,1.37555 -3.73932,1.84985 -0.67075,0.24337 2.38825,-1.56153 1.80639,-1.14853 -1.31581,0.93393 -2.75402,1.68844 -4.02103,2.6951 -3.71097,2.56456 -1.31761,0.9624 -8.42072,5.18333 -0.7894,0.46909 -1.59087,0.91757 -2.38697,1.37521 -0.25166,0.14467 -0.46955,0.38384 -0.75567,0.43278 -0.23506,0.0402 -0.46068,-0.12355 -0.69102,-0.18532 -0.0632,-0.17693 -0.25257,-0.35369 -0.18976,-0.53078 0.0688,-0.19391 0.33568,-0.23803 0.50428,-0.35596 0.33575,-0.23481 0.67634,-0.46276 1.00877,-0.70224 2.06885,-1.49035 4.11311,-3.01687 6.13029,-4.57627 6.66547,-5.1639 13.37229,-10.27771 20.38471,-14.96768 5.26499,-3.53882 1.03223,-0.71043 6.13933,-4.07952 0.86119,-0.56812 1.72715,-1.12922 2.57907,-1.71114 0.63465,-0.4335 1.89683,-1.66983 2.93178,-1.58693 -1.87745,0.38037 -3.58818,1.17584 -5.34197,1.93775 -4.18677,1.81889 -8.34715,3.69943 -12.51905,5.5519 -5.40586,2.32764 -10.86758,4.54849 -16.22066,6.99634 -2.3448,1.07223 -4.64355,2.24273 -6.97916,3.33482 -0.71261,0.3332 -1.43028,0.65548 -2.14542,0.98322 0,0 5.0218,-3.98348 5.0218,-3.98348 z"
         id="path5001"
         style="fill:#ffffff;fill-opacity:0.32618025;stroke:#000000;stroke-linecap:square;stroke-linejoin:miter;stroke-opacity:0.0085837" />
      <path
         inkscape:connector-curvature="0"
         id="path5015"
         d="m 635.15929,471.38709 c -4.32121,-1.80695 -10.11301,-4.42905 -12.87068,-5.82689 -8.13773,-4.12497 -52.73373,-18.15842 -63.13476,-19.86722 -1.40909,-0.2315 -2.56198,-0.74483 -2.56198,-1.14073 0,-0.99799 -29.6156,-0.0565 -35.86773,1.14028 -2.6303,0.50349 -9.85509,1.56278 -16.05508,2.35398 -22.42205,2.86134 -32.72531,4.84981 -38.47422,7.42529 -1.57249,0.70447 -7.15371,4.43807 -12.40271,8.29689 l -9.54362,7.01604 -4.80347,-1.52554 c -2.64191,-0.83905 -5.72578,-1.94618 -6.85305,-2.4603 -4.29104,-1.95701 -8.10794,-3.03444 -8.50037,-2.39948 -0.2276,0.36827 -3.30994,-0.36934 -7.18417,-1.71917 -7.33243,-2.55471 -31.27895,-8.58834 -46.14461,-11.62671 -5.07272,-1.03681 -9.37685,-2.08436 -9.56473,-2.32788 -0.77496,-1.00448 -20.41542,-2.36346 -33.47655,-2.31634 -17.34692,0.0626 -29.11774,1.1858 -35.62678,3.39968 -8.50204,2.89172 -21.49854,10.49627 -34.41725,20.13832 l -2.74933,2.05199 -8.86498,-2.41636 c -12.53798,-3.41753 -16.9181,-4.88904 -23.68941,-7.95846 -4.03958,-1.83113 -11.26014,-4.00287 -22.54544,-6.78102 -9.1314,-2.24793 -19.83064,-5.14383 -23.77609,-6.43534 -12.51829,-4.09775 -19.88148,-5.13871 -36.68876,-5.18678 -13.52707,-0.0387 -25.65524,1.75752 -42.086202,6.23306 -17.487847,4.76341 -30.100783,10.68001 -37.531852,17.6058 -1.029413,0.95942 -2.064829,1.55123 -2.300924,1.31514 -1.017294,-1.0173 9.290086,-55.25331 14.03579,-73.85439 2.812122,-11.02229 5.293491,-17.09745 14.492139,-35.48121 17.301909,-34.57837 23.083419,-43.92404 47.480319,-76.75077 6.57133,-8.84192 9.16659,-11.66444 17.80182,-19.36061 17.57366,-15.66259 44.83065,-37.5703 60.32036,-48.48228 19.77631,-13.93175 47.96253,-28.0765 69.00614,-34.62949 13.38505,-4.1681 34.04547,-9.40463 45.17566,-11.45007 17.4974,-3.21557 20.19598,-3.32502 52.86282,-2.14406 16.53331,0.59771 32.093,1.37786 34.57707,1.73368 9.52216,1.36394 59.86508,17.12973 66.56028,20.84455 10.97392,6.08887 42.49099,32.35583 50.92669,42.44334 2.47167,2.95564 9.83139,11.98381 16.35494,20.06259 6.52355,8.07878 14.26422,17.52124 17.20149,20.98323 7.48764,8.82526 14.73092,20.17558 38.4435,60.24152 16.79943,28.38514 18.65138,32.85554 26.2701,63.41318 2.22894,8.93996 4.54619,17.62567 5.14945,19.30158 1.52104,4.22555 4.73772,22.09719 7.19847,39.99418 1.13662,8.26666 2.23187,16.02946 2.43388,17.25067 0.20201,1.22122 0.12278,2.21163 -0.17607,2.20093 -0.29885,-0.0107 -4.07889,-1.49787 -8.4001,-3.30482 z M 159.90506,421.37257 c 1.65603,-1.30263 1.80013,-1.82215 1.80013,-6.49035 l 0,-5.07437 -2.35858,0 -2.35859,0 -0.20339,4.26311 c -0.16884,3.5386 -0.42171,4.30472 -1.48793,4.50798 -1.79916,0.34299 -2.45046,-1.02815 -2.46259,-5.18432 l -0.0105,-3.58677 -2.39118,0 -2.39118,0 0,4.65178 c 0,4.75566 0.57872,6.175 3.07437,7.54002 2.30294,1.2596 6.79864,0.93886 8.7894,-0.62708 z m 12.28217,0.65745 c 3.75036,-1.70878 3.76955,-6.20861 0.0322,-7.56004 -2.65434,-0.95982 -3.16496,-2.29057 -0.63529,-1.65567 1.27125,0.31907 1.86723,0.0732 2.44653,-1.00924 0.96407,-1.80136 0.71982,-2.02694 -2.68995,-2.48429 -3.3115,-0.44416 -5.98029,1.00371 -6.63132,3.59761 -0.49998,1.99208 1.25827,4.4046 3.21007,4.4046 0.6711,0 1.43984,0.35542 1.70832,0.78982 0.35094,0.56784 -0.21351,0.67596 -2.0083,0.38471 -1.99967,-0.3245 -2.63258,-0.15073 -3.1806,0.87325 -0.95665,1.78752 -0.88526,2.01459 0.85303,2.7133 2.14587,0.86253 4.93151,0.8407 6.89527,-0.054 z m 34.52378,-1.57968 c 1.1546,-1.15388 1.64463,-2.4493 1.69811,-4.48908 0.064,-2.4417 -0.26721,-3.17308 -2.23224,-4.92884 -1.95814,-1.74959 -2.70643,-2.00816 -4.9433,-1.70814 l -2.63587,0.35355 0,-3.69257 0,-3.69256 -2.39118,0 -2.39118,0 0,9.93781 0,9.9378 3.06126,-0.15846 c 1.68369,-0.0871 3.2956,0.0759 3.58202,0.36231 0.8971,0.89709 4.55752,-0.22803 6.25238,-1.92182 z m 15.82625,0.60514 c 0.73627,-0.66632 1.33867,-1.62499 1.33867,-2.13039 0,-1.15653 -3.62371,-1.22741 -5.41936,-0.10601 -1.02079,0.63749 -1.53473,0.61945 -2.38191,-0.0837 -1.96179,-1.62813 -1.13593,-2.09562 3.7021,-2.09562 5.21455,0 5.4038,-0.19192 3.70964,-3.76209 -2.96266,-6.24334 -13.27437,-4.0525 -13.27437,2.82031 0,3.04363 0.91282,4.74041 3.26235,6.06415 2.35035,1.32422 7.24006,0.94293 9.06288,-0.70669 z m 55.345,0.69073 c 1.10861,-0.57328 2.01565,-1.16301 2.01565,-1.31051 0,-0.1475 0.18661,-0.75448 0.4147,-1.34884 0.32444,-0.8455 -0.0571,-1.08067 -1.7529,-1.08067 -1.19218,0 -2.73999,0.30633 -3.43958,0.68074 -1.53511,0.82157 -3.42056,0.21775 -3.42056,-1.09544 0,-0.71585 1.10047,-0.95169 4.44077,-0.95169 4.25434,0 4.44077,-0.0701 4.44077,-1.6699 0,-0.91844 -0.74198,-2.53248 -1.64884,-3.58677 -1.40288,-1.63094 -2.16488,-1.91688 -5.10843,-1.91688 -4.59748,0 -7.09296,2.26656 -7.09296,6.4423 0,5.57344 5.79546,8.60732 11.15138,5.83766 z m -173.56545,-8.86399 0,-9.22313 -2.73278,0 -2.73278,0 0,9.22313 0,9.22314 2.73278,0 2.73278,0 0,-9.22314 z m 8.19834,5.12397 c 0,-3.64371 0.15182,-4.09917 1.36639,-4.09917 1.06275,0 1.36639,-0.45547 1.36639,-2.04959 0,-1.59412 -0.30364,-2.04958 -1.36639,-2.04958 -1.06275,0 -1.36639,-0.45547 -1.36639,-2.04959 0,-1.88691 -0.18978,-2.04958 -2.39118,-2.04958 -2.20141,0 -2.39119,0.16267 -2.39119,2.04958 0,1.12727 -0.30743,2.04959 -0.68319,2.04959 -0.37576,0 -0.6832,0.92231 -0.6832,2.04958 0,1.12727 0.30744,2.04959 0.6832,2.04959 0.37955,0 0.68319,1.82185 0.68319,4.09917 l 0,4.09917 2.39119,0 2.39118,0 0,-4.09917 z m 16.53488,-0.1708 c 0.17847,-3.7467 0.37084,-4.26997 1.56979,-4.26997 1.19894,0 1.39131,0.52327 1.56979,4.26997 l 0.20339,4.26997 2.35859,0 2.35858,0 0.0104,-3.58678 c 0.012,-4.09374 0.73439,-5.67945 2.31178,-5.07415 0.83557,0.32063 1.09374,1.39233 1.09374,4.54032 l 0,4.12061 2.41881,0 2.41881,0 -0.19843,-5.62929 c -0.19218,-5.45192 -0.26056,-5.659 -2.17056,-6.57237 -1.6876,-0.80702 -2.27903,-0.8009 -4.09917,0.0424 -1.78909,0.82892 -2.3984,0.84093 -3.83502,0.0756 -0.96137,-0.51216 -2.45461,-0.71919 -3.41598,-0.47361 -0.93939,0.23997 -3.0146,0.38241 -4.61156,0.31655 l -2.90358,-0.11975 0,6.18023 0,6.18024 2.35858,0 2.35858,0 0.2034,-4.26997 1e-5,-1e-5 z m 53.15101,0.25048 c 0,-3.44492 0.19531,-4.07057 1.36639,-4.37681 0.92332,-0.24145 1.36639,-0.93188 1.36639,-2.12926 0,-1.31649 -0.35122,-1.77195 -1.36639,-1.77195 -1.06276,0 -1.36639,-0.45547 -1.36639,-2.04959 0,-1.88691 -0.18978,-2.04958 -2.39119,-2.04958 -2.2014,0 -2.39118,0.16267 -2.39118,2.04958 0,1.12727 -0.30744,2.04959 -0.68319,2.04959 -0.37576,0 -0.6832,0.92231 -0.6832,2.04958 0,1.12727 0.30744,2.04959 0.6832,2.04959 0.37955,0 0.68319,1.82185 0.68319,4.09917 l 0,4.09917 2.39118,0 2.39119,0 0,-4.01949 z m 57.38837,-0.0797 c 0,-3.64371 0.15182,-4.09917 1.36639,-4.09917 1.06275,0 1.36639,-0.45547 1.36639,-2.04959 0,-1.59412 -0.30364,-2.04958 -1.36639,-2.04958 -1.00202,0 -1.36639,-0.45547 -1.36639,-1.70799 0,-1.25252 0.36437,-1.70799 1.36639,-1.70799 1.06275,0 1.36639,-0.45546 1.36639,-2.04958 0,-1.80909 -0.23394,-2.04959 -1.9937,-2.04959 -1.09655,0 -2.49138,0.19098 -3.09965,0.42439 -1.3353,0.5124 -3.10499,3.75567 -3.10499,5.69044 0,0.77017 -0.30744,1.40032 -0.68319,1.40032 -0.37576,0 -0.6832,0.92231 -0.6832,2.04958 0,1.12727 0.30744,2.04959 0.6832,2.04959 0.37955,0 0.68319,1.82185 0.68319,4.09917 l 0,4.09917 2.73278,0 2.73278,0 0,-4.09917 z m 8.88154,-2.04959 0,-6.14875 -2.39119,0 -2.39118,0 0,6.14875 0,6.14876 2.39118,0 2.39119,0 0,-6.14876 z m 7.65334,1.87879 c 0.17848,-3.7467 0.37084,-4.26997 1.56979,-4.26997 1.19894,0 1.39131,0.52327 1.56979,4.26997 l 0.20339,4.26997 2.79003,0 2.79002,0 -0.33183,-5.17076 c -0.39033,-6.08203 -1.30851,-7.39276 -5.11459,-7.30117 -1.4245,0.0343 -4.05034,0.0724 -5.83518,0.0846 l -3.24518,0.0223 0,5.72706 c 0,3.14989 0.20496,5.93203 0.45547,6.18253 0.2505,0.2505 1.46558,0.45546 2.70017,0.45546 l 2.24472,0 0.2034,-4.26997 z m -8.47318,-10.89696 c 1.915,-1.915 0.0521,-5.14464 -2.50024,-4.33457 -1.72184,0.54649 -2.32884,2.16884 -1.4358,3.8375 0.79493,1.48534 2.70638,1.72673 3.93604,0.49707 z"
         style="fill:#ff0000;fill-opacity:0.32618025;stroke:#000000;stroke-width:0.68319494;stroke-linecap:square;stroke-linejoin:miter;stroke-opacity:0.0085837" />
    </g>
  </g>
</svg>
